G04 #@! TF.GenerationSoftware,KiCad,Pcbnew,(5.1.4-0-10_14)*
G04 #@! TF.CreationDate,2021-05-27T15:15:14+02:00*
G04 #@! TF.ProjectId,Untitled,556e7469-746c-4656-942e-6b696361645f,rev?*
G04 #@! TF.SameCoordinates,Original*
G04 #@! TF.FileFunction,Other,ECO1*
%FSLAX46Y46*%
G04 Gerber Fmt 4.6, Leading zero omitted, Abs format (unit mm)*
G04 Created by KiCad (PCBNEW (5.1.4-0-10_14)) date 2021-05-27 15:15:14*
%MOMM*%
%LPD*%
G04 APERTURE LIST*
%ADD10C,0.150000*%
G04 APERTURE END LIST*
D10*
X179647619Y-58610952D02*
X179647619Y-58134761D01*
X179171428Y-58087142D01*
X179219047Y-58134761D01*
X179266666Y-58230000D01*
X179266666Y-58468095D01*
X179219047Y-58563333D01*
X179171428Y-58610952D01*
X179076190Y-58658571D01*
X178838095Y-58658571D01*
X178742857Y-58610952D01*
X178695238Y-58563333D01*
X178647619Y-58468095D01*
X178647619Y-58230000D01*
X178695238Y-58134761D01*
X178742857Y-58087142D01*
X179647619Y-59277619D02*
X179647619Y-59372857D01*
X179600000Y-59468095D01*
X179552380Y-59515714D01*
X179457142Y-59563333D01*
X179266666Y-59610952D01*
X179028571Y-59610952D01*
X178838095Y-59563333D01*
X178742857Y-59515714D01*
X178695238Y-59468095D01*
X178647619Y-59372857D01*
X178647619Y-59277619D01*
X178695238Y-59182380D01*
X178742857Y-59134761D01*
X178838095Y-59087142D01*
X179028571Y-59039523D01*
X179266666Y-59039523D01*
X179457142Y-59087142D01*
X179552380Y-59134761D01*
X179600000Y-59182380D01*
X179647619Y-59277619D01*
X178742857Y-60039523D02*
X178695238Y-60087142D01*
X178647619Y-60039523D01*
X178695238Y-59991904D01*
X178742857Y-60039523D01*
X178647619Y-60039523D01*
X179219047Y-60658571D02*
X179266666Y-60563333D01*
X179314285Y-60515714D01*
X179409523Y-60468095D01*
X179457142Y-60468095D01*
X179552380Y-60515714D01*
X179600000Y-60563333D01*
X179647619Y-60658571D01*
X179647619Y-60849047D01*
X179600000Y-60944285D01*
X179552380Y-60991904D01*
X179457142Y-61039523D01*
X179409523Y-61039523D01*
X179314285Y-60991904D01*
X179266666Y-60944285D01*
X179219047Y-60849047D01*
X179219047Y-60658571D01*
X179171428Y-60563333D01*
X179123809Y-60515714D01*
X179028571Y-60468095D01*
X178838095Y-60468095D01*
X178742857Y-60515714D01*
X178695238Y-60563333D01*
X178647619Y-60658571D01*
X178647619Y-60849047D01*
X178695238Y-60944285D01*
X178742857Y-60991904D01*
X178838095Y-61039523D01*
X179028571Y-61039523D01*
X179123809Y-60991904D01*
X179171428Y-60944285D01*
X179219047Y-60849047D01*
X179647619Y-61658571D02*
X179647619Y-61753809D01*
X179600000Y-61849047D01*
X179552380Y-61896666D01*
X179457142Y-61944285D01*
X179266666Y-61991904D01*
X179028571Y-61991904D01*
X178838095Y-61944285D01*
X178742857Y-61896666D01*
X178695238Y-61849047D01*
X178647619Y-61753809D01*
X178647619Y-61658571D01*
X178695238Y-61563333D01*
X178742857Y-61515714D01*
X178838095Y-61468095D01*
X179028571Y-61420476D01*
X179266666Y-61420476D01*
X179457142Y-61468095D01*
X179552380Y-61515714D01*
X179600000Y-61563333D01*
X179647619Y-61658571D01*
X179647619Y-62610952D02*
X179647619Y-62706190D01*
X179600000Y-62801428D01*
X179552380Y-62849047D01*
X179457142Y-62896666D01*
X179266666Y-62944285D01*
X179028571Y-62944285D01*
X178838095Y-62896666D01*
X178742857Y-62849047D01*
X178695238Y-62801428D01*
X178647619Y-62706190D01*
X178647619Y-62610952D01*
X178695238Y-62515714D01*
X178742857Y-62468095D01*
X178838095Y-62420476D01*
X179028571Y-62372857D01*
X179266666Y-62372857D01*
X179457142Y-62420476D01*
X179552380Y-62468095D01*
X179600000Y-62515714D01*
X179647619Y-62610952D01*
X178647619Y-64134761D02*
X179314285Y-64134761D01*
X179219047Y-64134761D02*
X179266666Y-64182380D01*
X179314285Y-64277619D01*
X179314285Y-64420476D01*
X179266666Y-64515714D01*
X179171428Y-64563333D01*
X178647619Y-64563333D01*
X179171428Y-64563333D02*
X179266666Y-64610952D01*
X179314285Y-64706190D01*
X179314285Y-64849047D01*
X179266666Y-64944285D01*
X179171428Y-64991904D01*
X178647619Y-64991904D01*
X178647619Y-65468095D02*
X179314285Y-65468095D01*
X179219047Y-65468095D02*
X179266666Y-65515714D01*
X179314285Y-65610952D01*
X179314285Y-65753809D01*
X179266666Y-65849047D01*
X179171428Y-65896666D01*
X178647619Y-65896666D01*
X179171428Y-65896666D02*
X179266666Y-65944285D01*
X179314285Y-66039523D01*
X179314285Y-66182380D01*
X179266666Y-66277619D01*
X179171428Y-66325238D01*
X178647619Y-66325238D01*
X177800000Y-36830000D02*
X177800000Y-87630000D01*
X162560000Y-36830000D02*
X178386421Y-36830000D01*
X162560000Y-87630000D02*
X178386421Y-87630000D01*
X177800000Y-87630000D02*
X177213579Y-86503496D01*
X177800000Y-87630000D02*
X178386421Y-86503496D01*
X177800000Y-36830000D02*
X177213579Y-37956504D01*
X177800000Y-36830000D02*
X178386421Y-37956504D01*
X127190952Y-108702380D02*
X126714761Y-108702380D01*
X126667142Y-109178571D01*
X126714761Y-109130952D01*
X126810000Y-109083333D01*
X127048095Y-109083333D01*
X127143333Y-109130952D01*
X127190952Y-109178571D01*
X127238571Y-109273809D01*
X127238571Y-109511904D01*
X127190952Y-109607142D01*
X127143333Y-109654761D01*
X127048095Y-109702380D01*
X126810000Y-109702380D01*
X126714761Y-109654761D01*
X126667142Y-109607142D01*
X127810000Y-109130952D02*
X127714761Y-109083333D01*
X127667142Y-109035714D01*
X127619523Y-108940476D01*
X127619523Y-108892857D01*
X127667142Y-108797619D01*
X127714761Y-108750000D01*
X127810000Y-108702380D01*
X128000476Y-108702380D01*
X128095714Y-108750000D01*
X128143333Y-108797619D01*
X128190952Y-108892857D01*
X128190952Y-108940476D01*
X128143333Y-109035714D01*
X128095714Y-109083333D01*
X128000476Y-109130952D01*
X127810000Y-109130952D01*
X127714761Y-109178571D01*
X127667142Y-109226190D01*
X127619523Y-109321428D01*
X127619523Y-109511904D01*
X127667142Y-109607142D01*
X127714761Y-109654761D01*
X127810000Y-109702380D01*
X128000476Y-109702380D01*
X128095714Y-109654761D01*
X128143333Y-109607142D01*
X128190952Y-109511904D01*
X128190952Y-109321428D01*
X128143333Y-109226190D01*
X128095714Y-109178571D01*
X128000476Y-109130952D01*
X128619523Y-109607142D02*
X128667142Y-109654761D01*
X128619523Y-109702380D01*
X128571904Y-109654761D01*
X128619523Y-109607142D01*
X128619523Y-109702380D01*
X129524285Y-109035714D02*
X129524285Y-109702380D01*
X129286190Y-108654761D02*
X129048095Y-109369047D01*
X129667142Y-109369047D01*
X130000476Y-108797619D02*
X130048095Y-108750000D01*
X130143333Y-108702380D01*
X130381428Y-108702380D01*
X130476666Y-108750000D01*
X130524285Y-108797619D01*
X130571904Y-108892857D01*
X130571904Y-108988095D01*
X130524285Y-109130952D01*
X129952857Y-109702380D01*
X130571904Y-109702380D01*
X131190952Y-108702380D02*
X131286190Y-108702380D01*
X131381428Y-108750000D01*
X131429047Y-108797619D01*
X131476666Y-108892857D01*
X131524285Y-109083333D01*
X131524285Y-109321428D01*
X131476666Y-109511904D01*
X131429047Y-109607142D01*
X131381428Y-109654761D01*
X131286190Y-109702380D01*
X131190952Y-109702380D01*
X131095714Y-109654761D01*
X131048095Y-109607142D01*
X131000476Y-109511904D01*
X130952857Y-109321428D01*
X130952857Y-109083333D01*
X131000476Y-108892857D01*
X131048095Y-108797619D01*
X131095714Y-108750000D01*
X131190952Y-108702380D01*
X132714761Y-109702380D02*
X132714761Y-109035714D01*
X132714761Y-109130952D02*
X132762380Y-109083333D01*
X132857619Y-109035714D01*
X133000476Y-109035714D01*
X133095714Y-109083333D01*
X133143333Y-109178571D01*
X133143333Y-109702380D01*
X133143333Y-109178571D02*
X133190952Y-109083333D01*
X133286190Y-109035714D01*
X133429047Y-109035714D01*
X133524285Y-109083333D01*
X133571904Y-109178571D01*
X133571904Y-109702380D01*
X134048095Y-109702380D02*
X134048095Y-109035714D01*
X134048095Y-109130952D02*
X134095714Y-109083333D01*
X134190952Y-109035714D01*
X134333809Y-109035714D01*
X134429047Y-109083333D01*
X134476666Y-109178571D01*
X134476666Y-109702380D01*
X134476666Y-109178571D02*
X134524285Y-109083333D01*
X134619523Y-109035714D01*
X134762380Y-109035714D01*
X134857619Y-109083333D01*
X134905238Y-109178571D01*
X134905238Y-109702380D01*
X101600000Y-107950000D02*
X160020000Y-107950000D01*
X101600000Y-105410000D02*
X101600000Y-108536421D01*
X160020000Y-105410000D02*
X160020000Y-108536421D01*
X160020000Y-107950000D02*
X158893496Y-108536421D01*
X160020000Y-107950000D02*
X158893496Y-107363579D01*
X101600000Y-107950000D02*
X102726504Y-108536421D01*
X101600000Y-107950000D02*
X102726504Y-107363579D01*
X127310000Y-101177619D02*
X127357619Y-101130000D01*
X127452857Y-101082380D01*
X127690952Y-101082380D01*
X127786190Y-101130000D01*
X127833809Y-101177619D01*
X127881428Y-101272857D01*
X127881428Y-101368095D01*
X127833809Y-101510952D01*
X127262380Y-102082380D01*
X127881428Y-102082380D01*
X128310000Y-101987142D02*
X128357619Y-102034761D01*
X128310000Y-102082380D01*
X128262380Y-102034761D01*
X128310000Y-101987142D01*
X128310000Y-102082380D01*
X128690952Y-101082380D02*
X129310000Y-101082380D01*
X128976666Y-101463333D01*
X129119523Y-101463333D01*
X129214761Y-101510952D01*
X129262380Y-101558571D01*
X129310000Y-101653809D01*
X129310000Y-101891904D01*
X129262380Y-101987142D01*
X129214761Y-102034761D01*
X129119523Y-102082380D01*
X128833809Y-102082380D01*
X128738571Y-102034761D01*
X128690952Y-101987142D01*
X129929047Y-101082380D02*
X130024285Y-101082380D01*
X130119523Y-101130000D01*
X130167142Y-101177619D01*
X130214761Y-101272857D01*
X130262380Y-101463333D01*
X130262380Y-101701428D01*
X130214761Y-101891904D01*
X130167142Y-101987142D01*
X130119523Y-102034761D01*
X130024285Y-102082380D01*
X129929047Y-102082380D01*
X129833809Y-102034761D01*
X129786190Y-101987142D01*
X129738571Y-101891904D01*
X129690952Y-101701428D01*
X129690952Y-101463333D01*
X129738571Y-101272857D01*
X129786190Y-101177619D01*
X129833809Y-101130000D01*
X129929047Y-101082380D01*
X130881428Y-101082380D02*
X130976666Y-101082380D01*
X131071904Y-101130000D01*
X131119523Y-101177619D01*
X131167142Y-101272857D01*
X131214761Y-101463333D01*
X131214761Y-101701428D01*
X131167142Y-101891904D01*
X131119523Y-101987142D01*
X131071904Y-102034761D01*
X130976666Y-102082380D01*
X130881428Y-102082380D01*
X130786190Y-102034761D01*
X130738571Y-101987142D01*
X130690952Y-101891904D01*
X130643333Y-101701428D01*
X130643333Y-101463333D01*
X130690952Y-101272857D01*
X130738571Y-101177619D01*
X130786190Y-101130000D01*
X130881428Y-101082380D01*
X131833809Y-101082380D02*
X131929047Y-101082380D01*
X132024285Y-101130000D01*
X132071904Y-101177619D01*
X132119523Y-101272857D01*
X132167142Y-101463333D01*
X132167142Y-101701428D01*
X132119523Y-101891904D01*
X132071904Y-101987142D01*
X132024285Y-102034761D01*
X131929047Y-102082380D01*
X131833809Y-102082380D01*
X131738571Y-102034761D01*
X131690952Y-101987142D01*
X131643333Y-101891904D01*
X131595714Y-101701428D01*
X131595714Y-101463333D01*
X131643333Y-101272857D01*
X131690952Y-101177619D01*
X131738571Y-101130000D01*
X131833809Y-101082380D01*
X133357619Y-102082380D02*
X133357619Y-101415714D01*
X133357619Y-101082380D02*
X133310000Y-101130000D01*
X133357619Y-101177619D01*
X133405238Y-101130000D01*
X133357619Y-101082380D01*
X133357619Y-101177619D01*
X133833809Y-101415714D02*
X133833809Y-102082380D01*
X133833809Y-101510952D02*
X133881428Y-101463333D01*
X133976666Y-101415714D01*
X134119523Y-101415714D01*
X134214761Y-101463333D01*
X134262380Y-101558571D01*
X134262380Y-102082380D01*
X101600000Y-100330000D02*
X160020000Y-100330000D01*
X101600000Y-92710000D02*
X101600000Y-100916421D01*
X160020000Y-92710000D02*
X160020000Y-100916421D01*
X160020000Y-100330000D02*
X158893496Y-100916421D01*
X160020000Y-100330000D02*
X158893496Y-99743579D01*
X101600000Y-100330000D02*
X102726504Y-100916421D01*
X101600000Y-100330000D02*
X102726504Y-99743579D01*
M02*
