G04 #@! TF.GenerationSoftware,KiCad,Pcbnew,(5.1.4-0-10_14)*
G04 #@! TF.CreationDate,2021-05-27T15:15:14+02:00*
G04 #@! TF.ProjectId,Untitled,556e7469-746c-4656-942e-6b696361645f,rev?*
G04 #@! TF.SameCoordinates,Original*
G04 #@! TF.FileFunction,Soldermask,Top*
G04 #@! TF.FilePolarity,Negative*
%FSLAX46Y46*%
G04 Gerber Fmt 4.6, Leading zero omitted, Abs format (unit mm)*
G04 Created by KiCad (PCBNEW (5.1.4-0-10_14)) date 2021-05-27 15:15:14*
%MOMM*%
%LPD*%
G04 APERTURE LIST*
%ADD10C,0.100000*%
G04 APERTURE END LIST*
D10*
G36*
X106510189Y-81030483D02*
G01*
X106579979Y-81059391D01*
X107038139Y-81249167D01*
X107513280Y-81566646D01*
X107917354Y-81970720D01*
X108234833Y-82445861D01*
X108234834Y-82445863D01*
X108453517Y-82973811D01*
X108565000Y-83534275D01*
X108565000Y-84105725D01*
X108453517Y-84666189D01*
X108453516Y-84666191D01*
X108234833Y-85194139D01*
X107917354Y-85669280D01*
X107513280Y-86073354D01*
X107038139Y-86390833D01*
X107038138Y-86390834D01*
X107038137Y-86390834D01*
X106510189Y-86609517D01*
X105949725Y-86721000D01*
X105378275Y-86721000D01*
X104817811Y-86609517D01*
X104289863Y-86390834D01*
X104289862Y-86390834D01*
X104289861Y-86390833D01*
X103814720Y-86073354D01*
X103410646Y-85669280D01*
X103093167Y-85194139D01*
X102874484Y-84666191D01*
X102874483Y-84666189D01*
X102763000Y-84105725D01*
X102763000Y-83534275D01*
X102874483Y-82973811D01*
X103093166Y-82445863D01*
X103093167Y-82445861D01*
X103410646Y-81970720D01*
X103814720Y-81566646D01*
X104289861Y-81249167D01*
X104748021Y-81059391D01*
X104817811Y-81030483D01*
X105378275Y-80919000D01*
X105949725Y-80919000D01*
X106510189Y-81030483D01*
X106510189Y-81030483D01*
G37*
G36*
X156294189Y-80522483D02*
G01*
X156294192Y-80522484D01*
X156294191Y-80522484D01*
X156822139Y-80741167D01*
X157297280Y-81058646D01*
X157701354Y-81462720D01*
X157770795Y-81566646D01*
X158018834Y-81937863D01*
X158237517Y-82465811D01*
X158349000Y-83026275D01*
X158349000Y-83597725D01*
X158237517Y-84158189D01*
X158237516Y-84158191D01*
X158018833Y-84686139D01*
X157701354Y-85161280D01*
X157297280Y-85565354D01*
X156822139Y-85882833D01*
X156822138Y-85882834D01*
X156822137Y-85882834D01*
X156294189Y-86101517D01*
X155733725Y-86213000D01*
X155162275Y-86213000D01*
X154601811Y-86101517D01*
X154073863Y-85882834D01*
X154073862Y-85882834D01*
X154073861Y-85882833D01*
X153598720Y-85565354D01*
X153194646Y-85161280D01*
X152877167Y-84686139D01*
X152658484Y-84158191D01*
X152658483Y-84158189D01*
X152547000Y-83597725D01*
X152547000Y-83026275D01*
X152658483Y-82465811D01*
X152877166Y-81937863D01*
X153125205Y-81566646D01*
X153194646Y-81462720D01*
X153598720Y-81058646D01*
X154073861Y-80741167D01*
X154601809Y-80522484D01*
X154601808Y-80522484D01*
X154601811Y-80522483D01*
X155162275Y-80411000D01*
X155733725Y-80411000D01*
X156294189Y-80522483D01*
X156294189Y-80522483D01*
G37*
G36*
X148984072Y-78710918D02*
G01*
X149229939Y-78812759D01*
X149451212Y-78960610D01*
X149639390Y-79148788D01*
X149787241Y-79370061D01*
X149889082Y-79615928D01*
X149941000Y-79876938D01*
X149941000Y-80143062D01*
X149889082Y-80404072D01*
X149787241Y-80649939D01*
X149639390Y-80871212D01*
X149451212Y-81059390D01*
X149229939Y-81207241D01*
X149229938Y-81207242D01*
X149229937Y-81207242D01*
X148984072Y-81309082D01*
X148723063Y-81361000D01*
X148456937Y-81361000D01*
X148195928Y-81309082D01*
X147950063Y-81207242D01*
X147950062Y-81207242D01*
X147950061Y-81207241D01*
X147728788Y-81059390D01*
X147540610Y-80871212D01*
X147392759Y-80649939D01*
X147290918Y-80404072D01*
X147239000Y-80143062D01*
X147239000Y-79876938D01*
X147290918Y-79615928D01*
X147392759Y-79370061D01*
X147540610Y-79148788D01*
X147728788Y-78960610D01*
X147950061Y-78812759D01*
X148195928Y-78710918D01*
X148456937Y-78659000D01*
X148723063Y-78659000D01*
X148984072Y-78710918D01*
X148984072Y-78710918D01*
G37*
G36*
X144861000Y-81361000D02*
G01*
X142159000Y-81361000D01*
X142159000Y-78659000D01*
X144861000Y-78659000D01*
X144861000Y-81361000D01*
X144861000Y-81361000D01*
G37*
G36*
X136284072Y-78710918D02*
G01*
X136529939Y-78812759D01*
X136751212Y-78960610D01*
X136939390Y-79148788D01*
X137087241Y-79370061D01*
X137189082Y-79615928D01*
X137241000Y-79876938D01*
X137241000Y-80143062D01*
X137189082Y-80404072D01*
X137087241Y-80649939D01*
X136939390Y-80871212D01*
X136751212Y-81059390D01*
X136529939Y-81207241D01*
X136529938Y-81207242D01*
X136529937Y-81207242D01*
X136284072Y-81309082D01*
X136023063Y-81361000D01*
X135756937Y-81361000D01*
X135495928Y-81309082D01*
X135250063Y-81207242D01*
X135250062Y-81207242D01*
X135250061Y-81207241D01*
X135028788Y-81059390D01*
X134840610Y-80871212D01*
X134692759Y-80649939D01*
X134590918Y-80404072D01*
X134539000Y-80143062D01*
X134539000Y-79876938D01*
X134590918Y-79615928D01*
X134692759Y-79370061D01*
X134840610Y-79148788D01*
X135028788Y-78960610D01*
X135250061Y-78812759D01*
X135495928Y-78710918D01*
X135756937Y-78659000D01*
X136023063Y-78659000D01*
X136284072Y-78710918D01*
X136284072Y-78710918D01*
G37*
G36*
X132161000Y-81361000D02*
G01*
X129459000Y-81361000D01*
X129459000Y-78659000D01*
X132161000Y-78659000D01*
X132161000Y-81361000D01*
X132161000Y-81361000D01*
G37*
G36*
X123584072Y-78710918D02*
G01*
X123829939Y-78812759D01*
X124051212Y-78960610D01*
X124239390Y-79148788D01*
X124387241Y-79370061D01*
X124489082Y-79615928D01*
X124541000Y-79876938D01*
X124541000Y-80143062D01*
X124489082Y-80404072D01*
X124387241Y-80649939D01*
X124239390Y-80871212D01*
X124051212Y-81059390D01*
X123829939Y-81207241D01*
X123829938Y-81207242D01*
X123829937Y-81207242D01*
X123584072Y-81309082D01*
X123323063Y-81361000D01*
X123056937Y-81361000D01*
X122795928Y-81309082D01*
X122550063Y-81207242D01*
X122550062Y-81207242D01*
X122550061Y-81207241D01*
X122328788Y-81059390D01*
X122140610Y-80871212D01*
X121992759Y-80649939D01*
X121890918Y-80404072D01*
X121839000Y-80143062D01*
X121839000Y-79876938D01*
X121890918Y-79615928D01*
X121992759Y-79370061D01*
X122140610Y-79148788D01*
X122328788Y-78960610D01*
X122550061Y-78812759D01*
X122795928Y-78710918D01*
X123056937Y-78659000D01*
X123323063Y-78659000D01*
X123584072Y-78710918D01*
X123584072Y-78710918D01*
G37*
G36*
X119461000Y-81361000D02*
G01*
X116759000Y-81361000D01*
X116759000Y-78659000D01*
X119461000Y-78659000D01*
X119461000Y-81361000D01*
X119461000Y-81361000D01*
G37*
G36*
X135884228Y-69793703D02*
G01*
X136039100Y-69857853D01*
X136178481Y-69950985D01*
X136297015Y-70069519D01*
X136390147Y-70208900D01*
X136454297Y-70363772D01*
X136487000Y-70528184D01*
X136487000Y-70695816D01*
X136454297Y-70860228D01*
X136390147Y-71015100D01*
X136297015Y-71154481D01*
X136178481Y-71273015D01*
X136039100Y-71366147D01*
X135884228Y-71430297D01*
X135719816Y-71463000D01*
X135552184Y-71463000D01*
X135387772Y-71430297D01*
X135232900Y-71366147D01*
X135093519Y-71273015D01*
X134974985Y-71154481D01*
X134881853Y-71015100D01*
X134817703Y-70860228D01*
X134785000Y-70695816D01*
X134785000Y-70528184D01*
X134817703Y-70363772D01*
X134881853Y-70208900D01*
X134974985Y-70069519D01*
X135093519Y-69950985D01*
X135232900Y-69857853D01*
X135387772Y-69793703D01*
X135552184Y-69761000D01*
X135719816Y-69761000D01*
X135884228Y-69793703D01*
X135884228Y-69793703D01*
G37*
G36*
X130884228Y-69793703D02*
G01*
X131039100Y-69857853D01*
X131178481Y-69950985D01*
X131297015Y-70069519D01*
X131390147Y-70208900D01*
X131454297Y-70363772D01*
X131487000Y-70528184D01*
X131487000Y-70695816D01*
X131454297Y-70860228D01*
X131390147Y-71015100D01*
X131297015Y-71154481D01*
X131178481Y-71273015D01*
X131039100Y-71366147D01*
X130884228Y-71430297D01*
X130719816Y-71463000D01*
X130552184Y-71463000D01*
X130387772Y-71430297D01*
X130232900Y-71366147D01*
X130093519Y-71273015D01*
X129974985Y-71154481D01*
X129881853Y-71015100D01*
X129817703Y-70860228D01*
X129785000Y-70695816D01*
X129785000Y-70528184D01*
X129817703Y-70363772D01*
X129881853Y-70208900D01*
X129974985Y-70069519D01*
X130093519Y-69950985D01*
X130232900Y-69857853D01*
X130387772Y-69793703D01*
X130552184Y-69761000D01*
X130719816Y-69761000D01*
X130884228Y-69793703D01*
X130884228Y-69793703D01*
G37*
G36*
X124708228Y-68737703D02*
G01*
X124863100Y-68801853D01*
X125002481Y-68894985D01*
X125121015Y-69013519D01*
X125214147Y-69152900D01*
X125278297Y-69307772D01*
X125311000Y-69472184D01*
X125311000Y-69639816D01*
X125278297Y-69804228D01*
X125214147Y-69959100D01*
X125121015Y-70098481D01*
X125002481Y-70217015D01*
X124863100Y-70310147D01*
X124708228Y-70374297D01*
X124543816Y-70407000D01*
X124376184Y-70407000D01*
X124211772Y-70374297D01*
X124056900Y-70310147D01*
X123917519Y-70217015D01*
X123798985Y-70098481D01*
X123705853Y-69959100D01*
X123641703Y-69804228D01*
X123609000Y-69639816D01*
X123609000Y-69472184D01*
X123641703Y-69307772D01*
X123705853Y-69152900D01*
X123798985Y-69013519D01*
X123917519Y-68894985D01*
X124056900Y-68801853D01*
X124211772Y-68737703D01*
X124376184Y-68705000D01*
X124543816Y-68705000D01*
X124708228Y-68737703D01*
X124708228Y-68737703D01*
G37*
G36*
X125311000Y-67907000D02*
G01*
X123609000Y-67907000D01*
X123609000Y-66205000D01*
X125311000Y-66205000D01*
X125311000Y-67907000D01*
X125311000Y-67907000D01*
G37*
G36*
X139440228Y-64713703D02*
G01*
X139595100Y-64777853D01*
X139734481Y-64870985D01*
X139853015Y-64989519D01*
X139946147Y-65128900D01*
X140010297Y-65283772D01*
X140043000Y-65448184D01*
X140043000Y-65615816D01*
X140010297Y-65780228D01*
X139946147Y-65935100D01*
X139853015Y-66074481D01*
X139734481Y-66193015D01*
X139595100Y-66286147D01*
X139440228Y-66350297D01*
X139275816Y-66383000D01*
X139108184Y-66383000D01*
X138943772Y-66350297D01*
X138788900Y-66286147D01*
X138649519Y-66193015D01*
X138530985Y-66074481D01*
X138437853Y-65935100D01*
X138373703Y-65780228D01*
X138341000Y-65615816D01*
X138341000Y-65448184D01*
X138373703Y-65283772D01*
X138437853Y-65128900D01*
X138530985Y-64989519D01*
X138649519Y-64870985D01*
X138788900Y-64777853D01*
X138943772Y-64713703D01*
X139108184Y-64681000D01*
X139275816Y-64681000D01*
X139440228Y-64713703D01*
X139440228Y-64713703D01*
G37*
G36*
X149518823Y-64693313D02*
G01*
X149679242Y-64741976D01*
X149746361Y-64777852D01*
X149827078Y-64820996D01*
X149956659Y-64927341D01*
X150063004Y-65056922D01*
X150063005Y-65056924D01*
X150142024Y-65204758D01*
X150190687Y-65365177D01*
X150207117Y-65532000D01*
X150190687Y-65698823D01*
X150142024Y-65859242D01*
X150101477Y-65935100D01*
X150063004Y-66007078D01*
X149956659Y-66136659D01*
X149827078Y-66243004D01*
X149827076Y-66243005D01*
X149679242Y-66322024D01*
X149679239Y-66322025D01*
X149649380Y-66331083D01*
X149518823Y-66370687D01*
X149393804Y-66383000D01*
X149310196Y-66383000D01*
X149185177Y-66370687D01*
X149054620Y-66331083D01*
X149024761Y-66322025D01*
X149024758Y-66322024D01*
X148876924Y-66243005D01*
X148876922Y-66243004D01*
X148747341Y-66136659D01*
X148640996Y-66007078D01*
X148602523Y-65935100D01*
X148561976Y-65859242D01*
X148513313Y-65698823D01*
X148496883Y-65532000D01*
X148513313Y-65365177D01*
X148561976Y-65204758D01*
X148640995Y-65056924D01*
X148640996Y-65056922D01*
X148747341Y-64927341D01*
X148876922Y-64820996D01*
X148957639Y-64777852D01*
X149024758Y-64741976D01*
X149185177Y-64693313D01*
X149310196Y-64681000D01*
X149393804Y-64681000D01*
X149518823Y-64693313D01*
X149518823Y-64693313D01*
G37*
G36*
X107436228Y-64657703D02*
G01*
X107591100Y-64721853D01*
X107730481Y-64814985D01*
X107849015Y-64933519D01*
X107942147Y-65072900D01*
X108006297Y-65227772D01*
X108039000Y-65392184D01*
X108039000Y-65559816D01*
X108006297Y-65724228D01*
X107942147Y-65879100D01*
X107849015Y-66018481D01*
X107730481Y-66137015D01*
X107591100Y-66230147D01*
X107436228Y-66294297D01*
X107271816Y-66327000D01*
X107104184Y-66327000D01*
X106939772Y-66294297D01*
X106784900Y-66230147D01*
X106645519Y-66137015D01*
X106526985Y-66018481D01*
X106433853Y-65879100D01*
X106369703Y-65724228D01*
X106337000Y-65559816D01*
X106337000Y-65392184D01*
X106369703Y-65227772D01*
X106433853Y-65072900D01*
X106526985Y-64933519D01*
X106645519Y-64814985D01*
X106784900Y-64721853D01*
X106939772Y-64657703D01*
X107104184Y-64625000D01*
X107271816Y-64625000D01*
X107436228Y-64657703D01*
X107436228Y-64657703D01*
G37*
G36*
X114588228Y-61665703D02*
G01*
X114743100Y-61729853D01*
X114882481Y-61822985D01*
X115001015Y-61941519D01*
X115094147Y-62080900D01*
X115158297Y-62235772D01*
X115191000Y-62400184D01*
X115191000Y-62567816D01*
X115158297Y-62732228D01*
X115094147Y-62887100D01*
X115001015Y-63026481D01*
X114882481Y-63145015D01*
X114743100Y-63238147D01*
X114588228Y-63302297D01*
X114423816Y-63335000D01*
X114256184Y-63335000D01*
X114091772Y-63302297D01*
X113936900Y-63238147D01*
X113797519Y-63145015D01*
X113678985Y-63026481D01*
X113585853Y-62887100D01*
X113521703Y-62732228D01*
X113489000Y-62567816D01*
X113489000Y-62400184D01*
X113521703Y-62235772D01*
X113585853Y-62080900D01*
X113678985Y-61941519D01*
X113797519Y-61822985D01*
X113936900Y-61729853D01*
X114091772Y-61665703D01*
X114256184Y-61633000D01*
X114423816Y-61633000D01*
X114588228Y-61665703D01*
X114588228Y-61665703D01*
G37*
G36*
X117691000Y-63335000D02*
G01*
X115989000Y-63335000D01*
X115989000Y-61633000D01*
X117691000Y-61633000D01*
X117691000Y-63335000D01*
X117691000Y-63335000D01*
G37*
G36*
X136138228Y-61411703D02*
G01*
X136293100Y-61475853D01*
X136432481Y-61568985D01*
X136551015Y-61687519D01*
X136644147Y-61826900D01*
X136708297Y-61981772D01*
X136741000Y-62146184D01*
X136741000Y-62313816D01*
X136708297Y-62478228D01*
X136644147Y-62633100D01*
X136551015Y-62772481D01*
X136432481Y-62891015D01*
X136293100Y-62984147D01*
X136138228Y-63048297D01*
X135973816Y-63081000D01*
X135806184Y-63081000D01*
X135641772Y-63048297D01*
X135486900Y-62984147D01*
X135347519Y-62891015D01*
X135228985Y-62772481D01*
X135135853Y-62633100D01*
X135071703Y-62478228D01*
X135039000Y-62313816D01*
X135039000Y-62146184D01*
X135071703Y-61981772D01*
X135135853Y-61826900D01*
X135228985Y-61687519D01*
X135347519Y-61568985D01*
X135486900Y-61475853D01*
X135641772Y-61411703D01*
X135806184Y-61379000D01*
X135973816Y-61379000D01*
X136138228Y-61411703D01*
X136138228Y-61411703D01*
G37*
G36*
X125896823Y-61391313D02*
G01*
X126057242Y-61439976D01*
X126189906Y-61510886D01*
X126205078Y-61518996D01*
X126334659Y-61625341D01*
X126441004Y-61754922D01*
X126441005Y-61754924D01*
X126520024Y-61902758D01*
X126568687Y-62063177D01*
X126585117Y-62230000D01*
X126568687Y-62396823D01*
X126520024Y-62557242D01*
X126479477Y-62633100D01*
X126441004Y-62705078D01*
X126334659Y-62834659D01*
X126205078Y-62941004D01*
X126205076Y-62941005D01*
X126057242Y-63020024D01*
X125896823Y-63068687D01*
X125771804Y-63081000D01*
X125688196Y-63081000D01*
X125563177Y-63068687D01*
X125402758Y-63020024D01*
X125254924Y-62941005D01*
X125254922Y-62941004D01*
X125125341Y-62834659D01*
X125018996Y-62705078D01*
X124980523Y-62633100D01*
X124939976Y-62557242D01*
X124891313Y-62396823D01*
X124874883Y-62230000D01*
X124891313Y-62063177D01*
X124939976Y-61902758D01*
X125018995Y-61754924D01*
X125018996Y-61754922D01*
X125125341Y-61625341D01*
X125254922Y-61518996D01*
X125270094Y-61510886D01*
X125402758Y-61439976D01*
X125563177Y-61391313D01*
X125688196Y-61379000D01*
X125771804Y-61379000D01*
X125896823Y-61391313D01*
X125896823Y-61391313D01*
G37*
G36*
X108039000Y-62827000D02*
G01*
X106337000Y-62827000D01*
X106337000Y-61125000D01*
X108039000Y-61125000D01*
X108039000Y-62827000D01*
X108039000Y-62827000D01*
G37*
G36*
X139358823Y-61137313D02*
G01*
X139519242Y-61185976D01*
X139586361Y-61221852D01*
X139667078Y-61264996D01*
X139796659Y-61371341D01*
X139903004Y-61500922D01*
X139903005Y-61500924D01*
X139982024Y-61648758D01*
X140030687Y-61809177D01*
X140047117Y-61976000D01*
X140030687Y-62142823D01*
X139982024Y-62303242D01*
X139941477Y-62379100D01*
X139903004Y-62451078D01*
X139796659Y-62580659D01*
X139667078Y-62687004D01*
X139667076Y-62687005D01*
X139519242Y-62766024D01*
X139358823Y-62814687D01*
X139233804Y-62827000D01*
X139150196Y-62827000D01*
X139025177Y-62814687D01*
X138864758Y-62766024D01*
X138716924Y-62687005D01*
X138716922Y-62687004D01*
X138587341Y-62580659D01*
X138480996Y-62451078D01*
X138442523Y-62379100D01*
X138401976Y-62303242D01*
X138353313Y-62142823D01*
X138336883Y-61976000D01*
X138353313Y-61809177D01*
X138401976Y-61648758D01*
X138480995Y-61500924D01*
X138480996Y-61500922D01*
X138587341Y-61371341D01*
X138716922Y-61264996D01*
X138797639Y-61221852D01*
X138864758Y-61185976D01*
X139025177Y-61137313D01*
X139150196Y-61125000D01*
X139233804Y-61125000D01*
X139358823Y-61137313D01*
X139358823Y-61137313D01*
G37*
G36*
X149600228Y-61157703D02*
G01*
X149755100Y-61221853D01*
X149894481Y-61314985D01*
X150013015Y-61433519D01*
X150106147Y-61572900D01*
X150170297Y-61727772D01*
X150203000Y-61892184D01*
X150203000Y-62059816D01*
X150170297Y-62224228D01*
X150106147Y-62379100D01*
X150013015Y-62518481D01*
X149894481Y-62637015D01*
X149755100Y-62730147D01*
X149600228Y-62794297D01*
X149435816Y-62827000D01*
X149268184Y-62827000D01*
X149103772Y-62794297D01*
X148948900Y-62730147D01*
X148809519Y-62637015D01*
X148690985Y-62518481D01*
X148597853Y-62379100D01*
X148533703Y-62224228D01*
X148501000Y-62059816D01*
X148501000Y-61892184D01*
X148533703Y-61727772D01*
X148597853Y-61572900D01*
X148690985Y-61433519D01*
X148809519Y-61314985D01*
X148948900Y-61221853D01*
X149103772Y-61157703D01*
X149268184Y-61125000D01*
X149435816Y-61125000D01*
X149600228Y-61157703D01*
X149600228Y-61157703D01*
G37*
G36*
X153664228Y-59125703D02*
G01*
X153819100Y-59189853D01*
X153958481Y-59282985D01*
X154077015Y-59401519D01*
X154170147Y-59540900D01*
X154234297Y-59695772D01*
X154267000Y-59860184D01*
X154267000Y-60027816D01*
X154234297Y-60192228D01*
X154170147Y-60347100D01*
X154077015Y-60486481D01*
X153958481Y-60605015D01*
X153819100Y-60698147D01*
X153664228Y-60762297D01*
X153499816Y-60795000D01*
X153332184Y-60795000D01*
X153167772Y-60762297D01*
X153012900Y-60698147D01*
X152873519Y-60605015D01*
X152754985Y-60486481D01*
X152661853Y-60347100D01*
X152597703Y-60192228D01*
X152565000Y-60027816D01*
X152565000Y-59860184D01*
X152597703Y-59695772D01*
X152661853Y-59540900D01*
X152754985Y-59401519D01*
X152873519Y-59282985D01*
X153012900Y-59189853D01*
X153167772Y-59125703D01*
X153332184Y-59093000D01*
X153499816Y-59093000D01*
X153664228Y-59125703D01*
X153664228Y-59125703D01*
G37*
G36*
X122168228Y-58537703D02*
G01*
X122323100Y-58601853D01*
X122462481Y-58694985D01*
X122581015Y-58813519D01*
X122674147Y-58952900D01*
X122738297Y-59107772D01*
X122771000Y-59272184D01*
X122771000Y-59439816D01*
X122738297Y-59604228D01*
X122674147Y-59759100D01*
X122581015Y-59898481D01*
X122462481Y-60017015D01*
X122323100Y-60110147D01*
X122168228Y-60174297D01*
X122003816Y-60207000D01*
X121836184Y-60207000D01*
X121671772Y-60174297D01*
X121516900Y-60110147D01*
X121377519Y-60017015D01*
X121258985Y-59898481D01*
X121165853Y-59759100D01*
X121101703Y-59604228D01*
X121069000Y-59439816D01*
X121069000Y-59272184D01*
X121101703Y-59107772D01*
X121165853Y-58952900D01*
X121258985Y-58813519D01*
X121377519Y-58694985D01*
X121516900Y-58601853D01*
X121671772Y-58537703D01*
X121836184Y-58505000D01*
X122003816Y-58505000D01*
X122168228Y-58537703D01*
X122168228Y-58537703D01*
G37*
G36*
X136056823Y-57581313D02*
G01*
X136217242Y-57629976D01*
X136284361Y-57665852D01*
X136365078Y-57708996D01*
X136494659Y-57815341D01*
X136601004Y-57944922D01*
X136601005Y-57944924D01*
X136680024Y-58092758D01*
X136728687Y-58253177D01*
X136745117Y-58420000D01*
X136728687Y-58586823D01*
X136680024Y-58747242D01*
X136639477Y-58823100D01*
X136601004Y-58895078D01*
X136494659Y-59024659D01*
X136365078Y-59131004D01*
X136365076Y-59131005D01*
X136217242Y-59210024D01*
X136056823Y-59258687D01*
X135931804Y-59271000D01*
X135848196Y-59271000D01*
X135723177Y-59258687D01*
X135562758Y-59210024D01*
X135414924Y-59131005D01*
X135414922Y-59131004D01*
X135285341Y-59024659D01*
X135178996Y-58895078D01*
X135140523Y-58823100D01*
X135099976Y-58747242D01*
X135051313Y-58586823D01*
X135034883Y-58420000D01*
X135051313Y-58253177D01*
X135099976Y-58092758D01*
X135178995Y-57944924D01*
X135178996Y-57944922D01*
X135285341Y-57815341D01*
X135414922Y-57708996D01*
X135495639Y-57665852D01*
X135562758Y-57629976D01*
X135723177Y-57581313D01*
X135848196Y-57569000D01*
X135931804Y-57569000D01*
X136056823Y-57581313D01*
X136056823Y-57581313D01*
G37*
G36*
X125978228Y-57601703D02*
G01*
X126133100Y-57665853D01*
X126272481Y-57758985D01*
X126391015Y-57877519D01*
X126484147Y-58016900D01*
X126548297Y-58171772D01*
X126581000Y-58336184D01*
X126581000Y-58503816D01*
X126548297Y-58668228D01*
X126484147Y-58823100D01*
X126391015Y-58962481D01*
X126272481Y-59081015D01*
X126133100Y-59174147D01*
X125978228Y-59238297D01*
X125813816Y-59271000D01*
X125646184Y-59271000D01*
X125481772Y-59238297D01*
X125326900Y-59174147D01*
X125187519Y-59081015D01*
X125068985Y-58962481D01*
X124975853Y-58823100D01*
X124911703Y-58668228D01*
X124879000Y-58503816D01*
X124879000Y-58336184D01*
X124911703Y-58171772D01*
X124975853Y-58016900D01*
X125068985Y-57877519D01*
X125187519Y-57758985D01*
X125326900Y-57665853D01*
X125481772Y-57601703D01*
X125646184Y-57569000D01*
X125813816Y-57569000D01*
X125978228Y-57601703D01*
X125978228Y-57601703D01*
G37*
G36*
X139440228Y-57601703D02*
G01*
X139595100Y-57665853D01*
X139734481Y-57758985D01*
X139853015Y-57877519D01*
X139946147Y-58016900D01*
X140010297Y-58171772D01*
X140043000Y-58336184D01*
X140043000Y-58503816D01*
X140010297Y-58668228D01*
X139946147Y-58823100D01*
X139853015Y-58962481D01*
X139734481Y-59081015D01*
X139595100Y-59174147D01*
X139440228Y-59238297D01*
X139275816Y-59271000D01*
X139108184Y-59271000D01*
X138943772Y-59238297D01*
X138788900Y-59174147D01*
X138649519Y-59081015D01*
X138530985Y-58962481D01*
X138437853Y-58823100D01*
X138373703Y-58668228D01*
X138341000Y-58503816D01*
X138341000Y-58336184D01*
X138373703Y-58171772D01*
X138437853Y-58016900D01*
X138530985Y-57877519D01*
X138649519Y-57758985D01*
X138788900Y-57665853D01*
X138943772Y-57601703D01*
X139108184Y-57569000D01*
X139275816Y-57569000D01*
X139440228Y-57601703D01*
X139440228Y-57601703D01*
G37*
G36*
X149518823Y-57581313D02*
G01*
X149679242Y-57629976D01*
X149746361Y-57665852D01*
X149827078Y-57708996D01*
X149956659Y-57815341D01*
X150063004Y-57944922D01*
X150063005Y-57944924D01*
X150142024Y-58092758D01*
X150190687Y-58253177D01*
X150207117Y-58420000D01*
X150190687Y-58586823D01*
X150142024Y-58747242D01*
X150101477Y-58823100D01*
X150063004Y-58895078D01*
X149956659Y-59024659D01*
X149827078Y-59131004D01*
X149827076Y-59131005D01*
X149679242Y-59210024D01*
X149518823Y-59258687D01*
X149393804Y-59271000D01*
X149310196Y-59271000D01*
X149185177Y-59258687D01*
X149024758Y-59210024D01*
X148876924Y-59131005D01*
X148876922Y-59131004D01*
X148747341Y-59024659D01*
X148640996Y-58895078D01*
X148602523Y-58823100D01*
X148561976Y-58747242D01*
X148513313Y-58586823D01*
X148496883Y-58420000D01*
X148513313Y-58253177D01*
X148561976Y-58092758D01*
X148640995Y-57944924D01*
X148640996Y-57944922D01*
X148747341Y-57815341D01*
X148876922Y-57708996D01*
X148957639Y-57665852D01*
X149024758Y-57629976D01*
X149185177Y-57581313D01*
X149310196Y-57569000D01*
X149393804Y-57569000D01*
X149518823Y-57581313D01*
X149518823Y-57581313D01*
G37*
G36*
X107436228Y-55513703D02*
G01*
X107591100Y-55577853D01*
X107730481Y-55670985D01*
X107849015Y-55789519D01*
X107942147Y-55928900D01*
X108006297Y-56083772D01*
X108039000Y-56248184D01*
X108039000Y-56415816D01*
X108006297Y-56580228D01*
X107942147Y-56735100D01*
X107849015Y-56874481D01*
X107730481Y-56993015D01*
X107591100Y-57086147D01*
X107436228Y-57150297D01*
X107271816Y-57183000D01*
X107104184Y-57183000D01*
X106939772Y-57150297D01*
X106784900Y-57086147D01*
X106645519Y-56993015D01*
X106526985Y-56874481D01*
X106433853Y-56735100D01*
X106369703Y-56580228D01*
X106337000Y-56415816D01*
X106337000Y-56248184D01*
X106369703Y-56083772D01*
X106433853Y-55928900D01*
X106526985Y-55789519D01*
X106645519Y-55670985D01*
X106784900Y-55577853D01*
X106939772Y-55513703D01*
X107104184Y-55481000D01*
X107271816Y-55481000D01*
X107436228Y-55513703D01*
X107436228Y-55513703D01*
G37*
G36*
X153664228Y-54125703D02*
G01*
X153819100Y-54189853D01*
X153958481Y-54282985D01*
X154077015Y-54401519D01*
X154170147Y-54540900D01*
X154234297Y-54695772D01*
X154267000Y-54860184D01*
X154267000Y-55027816D01*
X154234297Y-55192228D01*
X154170147Y-55347100D01*
X154077015Y-55486481D01*
X153958481Y-55605015D01*
X153819100Y-55698147D01*
X153664228Y-55762297D01*
X153499816Y-55795000D01*
X153332184Y-55795000D01*
X153167772Y-55762297D01*
X153012900Y-55698147D01*
X152873519Y-55605015D01*
X152754985Y-55486481D01*
X152661853Y-55347100D01*
X152597703Y-55192228D01*
X152565000Y-55027816D01*
X152565000Y-54860184D01*
X152597703Y-54695772D01*
X152661853Y-54540900D01*
X152754985Y-54401519D01*
X152873519Y-54282985D01*
X153012900Y-54189853D01*
X153167772Y-54125703D01*
X153332184Y-54093000D01*
X153499816Y-54093000D01*
X153664228Y-54125703D01*
X153664228Y-54125703D01*
G37*
G36*
X149600228Y-54045703D02*
G01*
X149755100Y-54109853D01*
X149894481Y-54202985D01*
X150013015Y-54321519D01*
X150106147Y-54460900D01*
X150170297Y-54615772D01*
X150203000Y-54780184D01*
X150203000Y-54947816D01*
X150170297Y-55112228D01*
X150106147Y-55267100D01*
X150013015Y-55406481D01*
X149894481Y-55525015D01*
X149755100Y-55618147D01*
X149600228Y-55682297D01*
X149435816Y-55715000D01*
X149268184Y-55715000D01*
X149103772Y-55682297D01*
X148948900Y-55618147D01*
X148809519Y-55525015D01*
X148690985Y-55406481D01*
X148597853Y-55267100D01*
X148533703Y-55112228D01*
X148501000Y-54947816D01*
X148501000Y-54780184D01*
X148533703Y-54615772D01*
X148597853Y-54460900D01*
X148690985Y-54321519D01*
X148809519Y-54202985D01*
X148948900Y-54109853D01*
X149103772Y-54045703D01*
X149268184Y-54013000D01*
X149435816Y-54013000D01*
X149600228Y-54045703D01*
X149600228Y-54045703D01*
G37*
G36*
X139358823Y-54025313D02*
G01*
X139519242Y-54073976D01*
X139651906Y-54144886D01*
X139667078Y-54152996D01*
X139796659Y-54259341D01*
X139903004Y-54388922D01*
X139903005Y-54388924D01*
X139982024Y-54536758D01*
X139982025Y-54536761D01*
X139983281Y-54540903D01*
X140030687Y-54697177D01*
X140047117Y-54864000D01*
X140030687Y-55030823D01*
X139982024Y-55191242D01*
X139941477Y-55267100D01*
X139903004Y-55339078D01*
X139796659Y-55468659D01*
X139667078Y-55575004D01*
X139667076Y-55575005D01*
X139519242Y-55654024D01*
X139358823Y-55702687D01*
X139233804Y-55715000D01*
X139150196Y-55715000D01*
X139025177Y-55702687D01*
X138864758Y-55654024D01*
X138716924Y-55575005D01*
X138716922Y-55575004D01*
X138587341Y-55468659D01*
X138480996Y-55339078D01*
X138442523Y-55267100D01*
X138401976Y-55191242D01*
X138353313Y-55030823D01*
X138336883Y-54864000D01*
X138353313Y-54697177D01*
X138400719Y-54540903D01*
X138401975Y-54536761D01*
X138401976Y-54536758D01*
X138480995Y-54388924D01*
X138480996Y-54388922D01*
X138587341Y-54259341D01*
X138716922Y-54152996D01*
X138732094Y-54144886D01*
X138864758Y-54073976D01*
X139025177Y-54025313D01*
X139150196Y-54013000D01*
X139233804Y-54013000D01*
X139358823Y-54025313D01*
X139358823Y-54025313D01*
G37*
G36*
X117691000Y-55715000D02*
G01*
X115989000Y-55715000D01*
X115989000Y-54013000D01*
X117691000Y-54013000D01*
X117691000Y-55715000D01*
X117691000Y-55715000D01*
G37*
G36*
X114588228Y-54045703D02*
G01*
X114743100Y-54109853D01*
X114882481Y-54202985D01*
X115001015Y-54321519D01*
X115094147Y-54460900D01*
X115158297Y-54615772D01*
X115191000Y-54780184D01*
X115191000Y-54947816D01*
X115158297Y-55112228D01*
X115094147Y-55267100D01*
X115001015Y-55406481D01*
X114882481Y-55525015D01*
X114743100Y-55618147D01*
X114588228Y-55682297D01*
X114423816Y-55715000D01*
X114256184Y-55715000D01*
X114091772Y-55682297D01*
X113936900Y-55618147D01*
X113797519Y-55525015D01*
X113678985Y-55406481D01*
X113585853Y-55267100D01*
X113521703Y-55112228D01*
X113489000Y-54947816D01*
X113489000Y-54780184D01*
X113521703Y-54615772D01*
X113585853Y-54460900D01*
X113678985Y-54321519D01*
X113797519Y-54202985D01*
X113936900Y-54109853D01*
X114091772Y-54045703D01*
X114256184Y-54013000D01*
X114423816Y-54013000D01*
X114588228Y-54045703D01*
X114588228Y-54045703D01*
G37*
G36*
X136138228Y-53791703D02*
G01*
X136293100Y-53855853D01*
X136432481Y-53948985D01*
X136551015Y-54067519D01*
X136644147Y-54206900D01*
X136708297Y-54361772D01*
X136741000Y-54526184D01*
X136741000Y-54693816D01*
X136708297Y-54858228D01*
X136644147Y-55013100D01*
X136551015Y-55152481D01*
X136432481Y-55271015D01*
X136293100Y-55364147D01*
X136138228Y-55428297D01*
X135973816Y-55461000D01*
X135806184Y-55461000D01*
X135641772Y-55428297D01*
X135486900Y-55364147D01*
X135347519Y-55271015D01*
X135228985Y-55152481D01*
X135135853Y-55013100D01*
X135071703Y-54858228D01*
X135039000Y-54693816D01*
X135039000Y-54526184D01*
X135071703Y-54361772D01*
X135135853Y-54206900D01*
X135228985Y-54067519D01*
X135347519Y-53948985D01*
X135486900Y-53855853D01*
X135641772Y-53791703D01*
X135806184Y-53759000D01*
X135973816Y-53759000D01*
X136138228Y-53791703D01*
X136138228Y-53791703D01*
G37*
G36*
X125896823Y-53771313D02*
G01*
X126057242Y-53819976D01*
X126124361Y-53855852D01*
X126205078Y-53898996D01*
X126334659Y-54005341D01*
X126441004Y-54134922D01*
X126441005Y-54134924D01*
X126520024Y-54282758D01*
X126568687Y-54443177D01*
X126585117Y-54610000D01*
X126568687Y-54776823D01*
X126520024Y-54937242D01*
X126471611Y-55027816D01*
X126441004Y-55085078D01*
X126334659Y-55214659D01*
X126205078Y-55321004D01*
X126205076Y-55321005D01*
X126057242Y-55400024D01*
X125896823Y-55448687D01*
X125771804Y-55461000D01*
X125688196Y-55461000D01*
X125563177Y-55448687D01*
X125402758Y-55400024D01*
X125254924Y-55321005D01*
X125254922Y-55321004D01*
X125125341Y-55214659D01*
X125018996Y-55085078D01*
X124988389Y-55027816D01*
X124939976Y-54937242D01*
X124891313Y-54776823D01*
X124874883Y-54610000D01*
X124891313Y-54443177D01*
X124939976Y-54282758D01*
X125018995Y-54134924D01*
X125018996Y-54134922D01*
X125125341Y-54005341D01*
X125254922Y-53898996D01*
X125335639Y-53855852D01*
X125402758Y-53819976D01*
X125563177Y-53771313D01*
X125688196Y-53759000D01*
X125771804Y-53759000D01*
X125896823Y-53771313D01*
X125896823Y-53771313D01*
G37*
G36*
X122168228Y-53537703D02*
G01*
X122323100Y-53601853D01*
X122462481Y-53694985D01*
X122581015Y-53813519D01*
X122674147Y-53952900D01*
X122738297Y-54107772D01*
X122771000Y-54272184D01*
X122771000Y-54439816D01*
X122738297Y-54604228D01*
X122674147Y-54759100D01*
X122581015Y-54898481D01*
X122462481Y-55017015D01*
X122323100Y-55110147D01*
X122168228Y-55174297D01*
X122003816Y-55207000D01*
X121836184Y-55207000D01*
X121671772Y-55174297D01*
X121516900Y-55110147D01*
X121377519Y-55017015D01*
X121258985Y-54898481D01*
X121165853Y-54759100D01*
X121101703Y-54604228D01*
X121069000Y-54439816D01*
X121069000Y-54272184D01*
X121101703Y-54107772D01*
X121165853Y-53952900D01*
X121258985Y-53813519D01*
X121377519Y-53694985D01*
X121516900Y-53601853D01*
X121671772Y-53537703D01*
X121836184Y-53505000D01*
X122003816Y-53505000D01*
X122168228Y-53537703D01*
X122168228Y-53537703D01*
G37*
G36*
X108039000Y-53683000D02*
G01*
X106337000Y-53683000D01*
X106337000Y-51981000D01*
X108039000Y-51981000D01*
X108039000Y-53683000D01*
X108039000Y-53683000D01*
G37*
G36*
X128906425Y-47322760D02*
G01*
X128906428Y-47322761D01*
X128906429Y-47322761D01*
X129085693Y-47377140D01*
X129085696Y-47377142D01*
X129085697Y-47377142D01*
X129250903Y-47465446D01*
X129395712Y-47584288D01*
X129514554Y-47729097D01*
X129578651Y-47849015D01*
X129602860Y-47894307D01*
X129646752Y-48039000D01*
X129657240Y-48073575D01*
X129675601Y-48260000D01*
X129657240Y-48446425D01*
X129657239Y-48446428D01*
X129657239Y-48446429D01*
X129602860Y-48625693D01*
X129602858Y-48625696D01*
X129602858Y-48625697D01*
X129514554Y-48790903D01*
X129395712Y-48935712D01*
X129250903Y-49054554D01*
X129085697Y-49142858D01*
X129085693Y-49142860D01*
X128906429Y-49197239D01*
X128906428Y-49197239D01*
X128906425Y-49197240D01*
X128766718Y-49211000D01*
X128673282Y-49211000D01*
X128533575Y-49197240D01*
X128533572Y-49197239D01*
X128533571Y-49197239D01*
X128354307Y-49142860D01*
X128354303Y-49142858D01*
X128189097Y-49054554D01*
X128044288Y-48935712D01*
X127925446Y-48790903D01*
X127837142Y-48625697D01*
X127837142Y-48625696D01*
X127837140Y-48625693D01*
X127782761Y-48446429D01*
X127782761Y-48446428D01*
X127782760Y-48446425D01*
X127764399Y-48260000D01*
X127782760Y-48073575D01*
X127793248Y-48039000D01*
X127837140Y-47894307D01*
X127861349Y-47849015D01*
X127925446Y-47729097D01*
X128044288Y-47584288D01*
X128189097Y-47465446D01*
X128354303Y-47377142D01*
X128354304Y-47377142D01*
X128354307Y-47377140D01*
X128533571Y-47322761D01*
X128533572Y-47322761D01*
X128533575Y-47322760D01*
X128673282Y-47309000D01*
X128766718Y-47309000D01*
X128906425Y-47322760D01*
X128906425Y-47322760D01*
G37*
G36*
X139106425Y-47322760D02*
G01*
X139106428Y-47322761D01*
X139106429Y-47322761D01*
X139285693Y-47377140D01*
X139285696Y-47377142D01*
X139285697Y-47377142D01*
X139450903Y-47465446D01*
X139595712Y-47584288D01*
X139714554Y-47729097D01*
X139778651Y-47849015D01*
X139802860Y-47894307D01*
X139846752Y-48039000D01*
X139857240Y-48073575D01*
X139875601Y-48260000D01*
X139857240Y-48446425D01*
X139857239Y-48446428D01*
X139857239Y-48446429D01*
X139802860Y-48625693D01*
X139802858Y-48625696D01*
X139802858Y-48625697D01*
X139714554Y-48790903D01*
X139595712Y-48935712D01*
X139450903Y-49054554D01*
X139285697Y-49142858D01*
X139285693Y-49142860D01*
X139106429Y-49197239D01*
X139106428Y-49197239D01*
X139106425Y-49197240D01*
X138966718Y-49211000D01*
X138873282Y-49211000D01*
X138733575Y-49197240D01*
X138733572Y-49197239D01*
X138733571Y-49197239D01*
X138554307Y-49142860D01*
X138554303Y-49142858D01*
X138389097Y-49054554D01*
X138244288Y-48935712D01*
X138125446Y-48790903D01*
X138037142Y-48625697D01*
X138037142Y-48625696D01*
X138037140Y-48625693D01*
X137982761Y-48446429D01*
X137982761Y-48446428D01*
X137982760Y-48446425D01*
X137964399Y-48260000D01*
X137982760Y-48073575D01*
X137993248Y-48039000D01*
X138037140Y-47894307D01*
X138061349Y-47849015D01*
X138125446Y-47729097D01*
X138244288Y-47584288D01*
X138389097Y-47465446D01*
X138554303Y-47377142D01*
X138554304Y-47377142D01*
X138554307Y-47377140D01*
X138733571Y-47322761D01*
X138733572Y-47322761D01*
X138733575Y-47322760D01*
X138873282Y-47309000D01*
X138966718Y-47309000D01*
X139106425Y-47322760D01*
X139106425Y-47322760D01*
G37*
G36*
X135706425Y-47322760D02*
G01*
X135706428Y-47322761D01*
X135706429Y-47322761D01*
X135885693Y-47377140D01*
X135885696Y-47377142D01*
X135885697Y-47377142D01*
X136050903Y-47465446D01*
X136195712Y-47584288D01*
X136314554Y-47729097D01*
X136378651Y-47849015D01*
X136402860Y-47894307D01*
X136446752Y-48039000D01*
X136457240Y-48073575D01*
X136475601Y-48260000D01*
X136457240Y-48446425D01*
X136457239Y-48446428D01*
X136457239Y-48446429D01*
X136402860Y-48625693D01*
X136402858Y-48625696D01*
X136402858Y-48625697D01*
X136314554Y-48790903D01*
X136195712Y-48935712D01*
X136050903Y-49054554D01*
X135885697Y-49142858D01*
X135885693Y-49142860D01*
X135706429Y-49197239D01*
X135706428Y-49197239D01*
X135706425Y-49197240D01*
X135566718Y-49211000D01*
X135473282Y-49211000D01*
X135333575Y-49197240D01*
X135333572Y-49197239D01*
X135333571Y-49197239D01*
X135154307Y-49142860D01*
X135154303Y-49142858D01*
X134989097Y-49054554D01*
X134844288Y-48935712D01*
X134725446Y-48790903D01*
X134637142Y-48625697D01*
X134637142Y-48625696D01*
X134637140Y-48625693D01*
X134582761Y-48446429D01*
X134582761Y-48446428D01*
X134582760Y-48446425D01*
X134564399Y-48260000D01*
X134582760Y-48073575D01*
X134593248Y-48039000D01*
X134637140Y-47894307D01*
X134661349Y-47849015D01*
X134725446Y-47729097D01*
X134844288Y-47584288D01*
X134989097Y-47465446D01*
X135154303Y-47377142D01*
X135154304Y-47377142D01*
X135154307Y-47377140D01*
X135333571Y-47322761D01*
X135333572Y-47322761D01*
X135333575Y-47322760D01*
X135473282Y-47309000D01*
X135566718Y-47309000D01*
X135706425Y-47322760D01*
X135706425Y-47322760D01*
G37*
G36*
X132306425Y-47322760D02*
G01*
X132306428Y-47322761D01*
X132306429Y-47322761D01*
X132485693Y-47377140D01*
X132485696Y-47377142D01*
X132485697Y-47377142D01*
X132650903Y-47465446D01*
X132795712Y-47584288D01*
X132914554Y-47729097D01*
X132978651Y-47849015D01*
X133002860Y-47894307D01*
X133046752Y-48039000D01*
X133057240Y-48073575D01*
X133075601Y-48260000D01*
X133057240Y-48446425D01*
X133057239Y-48446428D01*
X133057239Y-48446429D01*
X133002860Y-48625693D01*
X133002858Y-48625696D01*
X133002858Y-48625697D01*
X132914554Y-48790903D01*
X132795712Y-48935712D01*
X132650903Y-49054554D01*
X132485697Y-49142858D01*
X132485693Y-49142860D01*
X132306429Y-49197239D01*
X132306428Y-49197239D01*
X132306425Y-49197240D01*
X132166718Y-49211000D01*
X132073282Y-49211000D01*
X131933575Y-49197240D01*
X131933572Y-49197239D01*
X131933571Y-49197239D01*
X131754307Y-49142860D01*
X131754303Y-49142858D01*
X131589097Y-49054554D01*
X131444288Y-48935712D01*
X131325446Y-48790903D01*
X131237142Y-48625697D01*
X131237142Y-48625696D01*
X131237140Y-48625693D01*
X131182761Y-48446429D01*
X131182761Y-48446428D01*
X131182760Y-48446425D01*
X131164399Y-48260000D01*
X131182760Y-48073575D01*
X131193248Y-48039000D01*
X131237140Y-47894307D01*
X131261349Y-47849015D01*
X131325446Y-47729097D01*
X131444288Y-47584288D01*
X131589097Y-47465446D01*
X131754303Y-47377142D01*
X131754304Y-47377142D01*
X131754307Y-47377140D01*
X131933571Y-47322761D01*
X131933572Y-47322761D01*
X131933575Y-47322760D01*
X132073282Y-47309000D01*
X132166718Y-47309000D01*
X132306425Y-47322760D01*
X132306425Y-47322760D01*
G37*
G36*
X125506425Y-47322760D02*
G01*
X125506428Y-47322761D01*
X125506429Y-47322761D01*
X125685693Y-47377140D01*
X125685696Y-47377142D01*
X125685697Y-47377142D01*
X125850903Y-47465446D01*
X125995712Y-47584288D01*
X126114554Y-47729097D01*
X126178651Y-47849015D01*
X126202860Y-47894307D01*
X126246752Y-48039000D01*
X126257240Y-48073575D01*
X126275601Y-48260000D01*
X126257240Y-48446425D01*
X126257239Y-48446428D01*
X126257239Y-48446429D01*
X126202860Y-48625693D01*
X126202858Y-48625696D01*
X126202858Y-48625697D01*
X126114554Y-48790903D01*
X125995712Y-48935712D01*
X125850903Y-49054554D01*
X125685697Y-49142858D01*
X125685693Y-49142860D01*
X125506429Y-49197239D01*
X125506428Y-49197239D01*
X125506425Y-49197240D01*
X125366718Y-49211000D01*
X125273282Y-49211000D01*
X125133575Y-49197240D01*
X125133572Y-49197239D01*
X125133571Y-49197239D01*
X124954307Y-49142860D01*
X124954303Y-49142858D01*
X124789097Y-49054554D01*
X124644288Y-48935712D01*
X124525446Y-48790903D01*
X124437142Y-48625697D01*
X124437142Y-48625696D01*
X124437140Y-48625693D01*
X124382761Y-48446429D01*
X124382761Y-48446428D01*
X124382760Y-48446425D01*
X124364399Y-48260000D01*
X124382760Y-48073575D01*
X124393248Y-48039000D01*
X124437140Y-47894307D01*
X124461349Y-47849015D01*
X124525446Y-47729097D01*
X124644288Y-47584288D01*
X124789097Y-47465446D01*
X124954303Y-47377142D01*
X124954304Y-47377142D01*
X124954307Y-47377140D01*
X125133571Y-47322761D01*
X125133572Y-47322761D01*
X125133575Y-47322760D01*
X125273282Y-47309000D01*
X125366718Y-47309000D01*
X125506425Y-47322760D01*
X125506425Y-47322760D01*
G37*
G36*
X122871000Y-49211000D02*
G01*
X120969000Y-49211000D01*
X120969000Y-47309000D01*
X122871000Y-47309000D01*
X122871000Y-49211000D01*
X122871000Y-49211000D01*
G37*
G36*
X115151000Y-48095000D02*
G01*
X113449000Y-48095000D01*
X113449000Y-46393000D01*
X115151000Y-46393000D01*
X115151000Y-48095000D01*
X115151000Y-48095000D01*
G37*
G36*
X147060228Y-46369703D02*
G01*
X147215100Y-46433853D01*
X147354481Y-46526985D01*
X147473015Y-46645519D01*
X147566147Y-46784900D01*
X147630297Y-46939772D01*
X147663000Y-47104184D01*
X147663000Y-47271816D01*
X147630297Y-47436228D01*
X147566147Y-47591100D01*
X147473015Y-47730481D01*
X147354481Y-47849015D01*
X147215100Y-47942147D01*
X147060228Y-48006297D01*
X146895816Y-48039000D01*
X146728184Y-48039000D01*
X146563772Y-48006297D01*
X146408900Y-47942147D01*
X146269519Y-47849015D01*
X146150985Y-47730481D01*
X146057853Y-47591100D01*
X145993703Y-47436228D01*
X145961000Y-47271816D01*
X145961000Y-47104184D01*
X145993703Y-46939772D01*
X146057853Y-46784900D01*
X146150985Y-46645519D01*
X146269519Y-46526985D01*
X146408900Y-46433853D01*
X146563772Y-46369703D01*
X146728184Y-46337000D01*
X146895816Y-46337000D01*
X147060228Y-46369703D01*
X147060228Y-46369703D01*
G37*
G36*
X114548228Y-42925703D02*
G01*
X114703100Y-42989853D01*
X114842481Y-43082985D01*
X114961015Y-43201519D01*
X115054147Y-43340900D01*
X115118297Y-43495772D01*
X115151000Y-43660184D01*
X115151000Y-43827816D01*
X115118297Y-43992228D01*
X115054147Y-44147100D01*
X114961015Y-44286481D01*
X114842481Y-44405015D01*
X114703100Y-44498147D01*
X114548228Y-44562297D01*
X114383816Y-44595000D01*
X114216184Y-44595000D01*
X114051772Y-44562297D01*
X113896900Y-44498147D01*
X113757519Y-44405015D01*
X113638985Y-44286481D01*
X113545853Y-44147100D01*
X113481703Y-43992228D01*
X113449000Y-43827816D01*
X113449000Y-43660184D01*
X113481703Y-43495772D01*
X113545853Y-43340900D01*
X113638985Y-43201519D01*
X113757519Y-43082985D01*
X113896900Y-42989853D01*
X114051772Y-42925703D01*
X114216184Y-42893000D01*
X114383816Y-42893000D01*
X114548228Y-42925703D01*
X114548228Y-42925703D01*
G37*
G36*
X156294189Y-38866483D02*
G01*
X156294192Y-38866484D01*
X156294191Y-38866484D01*
X156822139Y-39085167D01*
X157297280Y-39402646D01*
X157701354Y-39806720D01*
X158018833Y-40281861D01*
X158018834Y-40281863D01*
X158237517Y-40809811D01*
X158349000Y-41370275D01*
X158349000Y-41941725D01*
X158237517Y-42502189D01*
X158035520Y-42989853D01*
X158018833Y-43030139D01*
X157701354Y-43505280D01*
X157297280Y-43909354D01*
X156822139Y-44226833D01*
X156822138Y-44226834D01*
X156822137Y-44226834D01*
X156294189Y-44445517D01*
X155733725Y-44557000D01*
X155162275Y-44557000D01*
X154601811Y-44445517D01*
X154073863Y-44226834D01*
X154073862Y-44226834D01*
X154073861Y-44226833D01*
X153598720Y-43909354D01*
X153194646Y-43505280D01*
X152877167Y-43030139D01*
X152860480Y-42989853D01*
X152658483Y-42502189D01*
X152547000Y-41941725D01*
X152547000Y-41370275D01*
X152658483Y-40809811D01*
X152877166Y-40281863D01*
X152877167Y-40281861D01*
X153194646Y-39806720D01*
X153598720Y-39402646D01*
X154073861Y-39085167D01*
X154601809Y-38866484D01*
X154601808Y-38866484D01*
X154601811Y-38866483D01*
X155162275Y-38755000D01*
X155733725Y-38755000D01*
X156294189Y-38866483D01*
X156294189Y-38866483D01*
G37*
G36*
X106510189Y-38866483D02*
G01*
X106510192Y-38866484D01*
X106510191Y-38866484D01*
X107038139Y-39085167D01*
X107513280Y-39402646D01*
X107917354Y-39806720D01*
X108234833Y-40281861D01*
X108234834Y-40281863D01*
X108453517Y-40809811D01*
X108565000Y-41370275D01*
X108565000Y-41941725D01*
X108453517Y-42502189D01*
X108251520Y-42989853D01*
X108234833Y-43030139D01*
X107917354Y-43505280D01*
X107513280Y-43909354D01*
X107038139Y-44226833D01*
X107038138Y-44226834D01*
X107038137Y-44226834D01*
X106510189Y-44445517D01*
X105949725Y-44557000D01*
X105378275Y-44557000D01*
X104817811Y-44445517D01*
X104289863Y-44226834D01*
X104289862Y-44226834D01*
X104289861Y-44226833D01*
X103814720Y-43909354D01*
X103410646Y-43505280D01*
X103093167Y-43030139D01*
X103076480Y-42989853D01*
X102874483Y-42502189D01*
X102763000Y-41941725D01*
X102763000Y-41370275D01*
X102874483Y-40809811D01*
X103093166Y-40281863D01*
X103093167Y-40281861D01*
X103410646Y-39806720D01*
X103814720Y-39402646D01*
X104289861Y-39085167D01*
X104817809Y-38866484D01*
X104817808Y-38866484D01*
X104817811Y-38866483D01*
X105378275Y-38755000D01*
X105949725Y-38755000D01*
X106510189Y-38866483D01*
X106510189Y-38866483D01*
G37*
G36*
X147663000Y-44539000D02*
G01*
X145961000Y-44539000D01*
X145961000Y-42837000D01*
X147663000Y-42837000D01*
X147663000Y-44539000D01*
X147663000Y-44539000D01*
G37*
G36*
X123806425Y-42242760D02*
G01*
X123806428Y-42242761D01*
X123806429Y-42242761D01*
X123985693Y-42297140D01*
X123985696Y-42297142D01*
X123985697Y-42297142D01*
X124150903Y-42385446D01*
X124295712Y-42504288D01*
X124414554Y-42649097D01*
X124502858Y-42814303D01*
X124502860Y-42814307D01*
X124536652Y-42925705D01*
X124557240Y-42993575D01*
X124575601Y-43180000D01*
X124557240Y-43366425D01*
X124557239Y-43366428D01*
X124557239Y-43366429D01*
X124502860Y-43545693D01*
X124502858Y-43545696D01*
X124502858Y-43545697D01*
X124414554Y-43710903D01*
X124295712Y-43855712D01*
X124150903Y-43974554D01*
X123985697Y-44062858D01*
X123985693Y-44062860D01*
X123806429Y-44117239D01*
X123806428Y-44117239D01*
X123806425Y-44117240D01*
X123666718Y-44131000D01*
X123573282Y-44131000D01*
X123433575Y-44117240D01*
X123433572Y-44117239D01*
X123433571Y-44117239D01*
X123254307Y-44062860D01*
X123254303Y-44062858D01*
X123089097Y-43974554D01*
X122944288Y-43855712D01*
X122825446Y-43710903D01*
X122737142Y-43545697D01*
X122737142Y-43545696D01*
X122737140Y-43545693D01*
X122682761Y-43366429D01*
X122682761Y-43366428D01*
X122682760Y-43366425D01*
X122664399Y-43180000D01*
X122682760Y-42993575D01*
X122703348Y-42925705D01*
X122737140Y-42814307D01*
X122737142Y-42814303D01*
X122825446Y-42649097D01*
X122944288Y-42504288D01*
X123089097Y-42385446D01*
X123254303Y-42297142D01*
X123254304Y-42297142D01*
X123254307Y-42297140D01*
X123433571Y-42242761D01*
X123433572Y-42242761D01*
X123433575Y-42242760D01*
X123573282Y-42229000D01*
X123666718Y-42229000D01*
X123806425Y-42242760D01*
X123806425Y-42242760D01*
G37*
G36*
X127206425Y-42242760D02*
G01*
X127206428Y-42242761D01*
X127206429Y-42242761D01*
X127385693Y-42297140D01*
X127385696Y-42297142D01*
X127385697Y-42297142D01*
X127550903Y-42385446D01*
X127695712Y-42504288D01*
X127814554Y-42649097D01*
X127902858Y-42814303D01*
X127902860Y-42814307D01*
X127936652Y-42925705D01*
X127957240Y-42993575D01*
X127975601Y-43180000D01*
X127957240Y-43366425D01*
X127957239Y-43366428D01*
X127957239Y-43366429D01*
X127902860Y-43545693D01*
X127902858Y-43545696D01*
X127902858Y-43545697D01*
X127814554Y-43710903D01*
X127695712Y-43855712D01*
X127550903Y-43974554D01*
X127385697Y-44062858D01*
X127385693Y-44062860D01*
X127206429Y-44117239D01*
X127206428Y-44117239D01*
X127206425Y-44117240D01*
X127066718Y-44131000D01*
X126973282Y-44131000D01*
X126833575Y-44117240D01*
X126833572Y-44117239D01*
X126833571Y-44117239D01*
X126654307Y-44062860D01*
X126654303Y-44062858D01*
X126489097Y-43974554D01*
X126344288Y-43855712D01*
X126225446Y-43710903D01*
X126137142Y-43545697D01*
X126137142Y-43545696D01*
X126137140Y-43545693D01*
X126082761Y-43366429D01*
X126082761Y-43366428D01*
X126082760Y-43366425D01*
X126064399Y-43180000D01*
X126082760Y-42993575D01*
X126103348Y-42925705D01*
X126137140Y-42814307D01*
X126137142Y-42814303D01*
X126225446Y-42649097D01*
X126344288Y-42504288D01*
X126489097Y-42385446D01*
X126654303Y-42297142D01*
X126654304Y-42297142D01*
X126654307Y-42297140D01*
X126833571Y-42242761D01*
X126833572Y-42242761D01*
X126833575Y-42242760D01*
X126973282Y-42229000D01*
X127066718Y-42229000D01*
X127206425Y-42242760D01*
X127206425Y-42242760D01*
G37*
G36*
X137406425Y-42242760D02*
G01*
X137406428Y-42242761D01*
X137406429Y-42242761D01*
X137585693Y-42297140D01*
X137585696Y-42297142D01*
X137585697Y-42297142D01*
X137750903Y-42385446D01*
X137895712Y-42504288D01*
X138014554Y-42649097D01*
X138102858Y-42814303D01*
X138102860Y-42814307D01*
X138136652Y-42925705D01*
X138157240Y-42993575D01*
X138175601Y-43180000D01*
X138157240Y-43366425D01*
X138157239Y-43366428D01*
X138157239Y-43366429D01*
X138102860Y-43545693D01*
X138102858Y-43545696D01*
X138102858Y-43545697D01*
X138014554Y-43710903D01*
X137895712Y-43855712D01*
X137750903Y-43974554D01*
X137585697Y-44062858D01*
X137585693Y-44062860D01*
X137406429Y-44117239D01*
X137406428Y-44117239D01*
X137406425Y-44117240D01*
X137266718Y-44131000D01*
X137173282Y-44131000D01*
X137033575Y-44117240D01*
X137033572Y-44117239D01*
X137033571Y-44117239D01*
X136854307Y-44062860D01*
X136854303Y-44062858D01*
X136689097Y-43974554D01*
X136544288Y-43855712D01*
X136425446Y-43710903D01*
X136337142Y-43545697D01*
X136337142Y-43545696D01*
X136337140Y-43545693D01*
X136282761Y-43366429D01*
X136282761Y-43366428D01*
X136282760Y-43366425D01*
X136264399Y-43180000D01*
X136282760Y-42993575D01*
X136303348Y-42925705D01*
X136337140Y-42814307D01*
X136337142Y-42814303D01*
X136425446Y-42649097D01*
X136544288Y-42504288D01*
X136689097Y-42385446D01*
X136854303Y-42297142D01*
X136854304Y-42297142D01*
X136854307Y-42297140D01*
X137033571Y-42242761D01*
X137033572Y-42242761D01*
X137033575Y-42242760D01*
X137173282Y-42229000D01*
X137266718Y-42229000D01*
X137406425Y-42242760D01*
X137406425Y-42242760D01*
G37*
G36*
X130606425Y-42242760D02*
G01*
X130606428Y-42242761D01*
X130606429Y-42242761D01*
X130785693Y-42297140D01*
X130785696Y-42297142D01*
X130785697Y-42297142D01*
X130950903Y-42385446D01*
X131095712Y-42504288D01*
X131214554Y-42649097D01*
X131302858Y-42814303D01*
X131302860Y-42814307D01*
X131336652Y-42925705D01*
X131357240Y-42993575D01*
X131375601Y-43180000D01*
X131357240Y-43366425D01*
X131357239Y-43366428D01*
X131357239Y-43366429D01*
X131302860Y-43545693D01*
X131302858Y-43545696D01*
X131302858Y-43545697D01*
X131214554Y-43710903D01*
X131095712Y-43855712D01*
X130950903Y-43974554D01*
X130785697Y-44062858D01*
X130785693Y-44062860D01*
X130606429Y-44117239D01*
X130606428Y-44117239D01*
X130606425Y-44117240D01*
X130466718Y-44131000D01*
X130373282Y-44131000D01*
X130233575Y-44117240D01*
X130233572Y-44117239D01*
X130233571Y-44117239D01*
X130054307Y-44062860D01*
X130054303Y-44062858D01*
X129889097Y-43974554D01*
X129744288Y-43855712D01*
X129625446Y-43710903D01*
X129537142Y-43545697D01*
X129537142Y-43545696D01*
X129537140Y-43545693D01*
X129482761Y-43366429D01*
X129482761Y-43366428D01*
X129482760Y-43366425D01*
X129464399Y-43180000D01*
X129482760Y-42993575D01*
X129503348Y-42925705D01*
X129537140Y-42814307D01*
X129537142Y-42814303D01*
X129625446Y-42649097D01*
X129744288Y-42504288D01*
X129889097Y-42385446D01*
X130054303Y-42297142D01*
X130054304Y-42297142D01*
X130054307Y-42297140D01*
X130233571Y-42242761D01*
X130233572Y-42242761D01*
X130233575Y-42242760D01*
X130373282Y-42229000D01*
X130466718Y-42229000D01*
X130606425Y-42242760D01*
X130606425Y-42242760D01*
G37*
G36*
X134006425Y-42242760D02*
G01*
X134006428Y-42242761D01*
X134006429Y-42242761D01*
X134185693Y-42297140D01*
X134185696Y-42297142D01*
X134185697Y-42297142D01*
X134350903Y-42385446D01*
X134495712Y-42504288D01*
X134614554Y-42649097D01*
X134702858Y-42814303D01*
X134702860Y-42814307D01*
X134736652Y-42925705D01*
X134757240Y-42993575D01*
X134775601Y-43180000D01*
X134757240Y-43366425D01*
X134757239Y-43366428D01*
X134757239Y-43366429D01*
X134702860Y-43545693D01*
X134702858Y-43545696D01*
X134702858Y-43545697D01*
X134614554Y-43710903D01*
X134495712Y-43855712D01*
X134350903Y-43974554D01*
X134185697Y-44062858D01*
X134185693Y-44062860D01*
X134006429Y-44117239D01*
X134006428Y-44117239D01*
X134006425Y-44117240D01*
X133866718Y-44131000D01*
X133773282Y-44131000D01*
X133633575Y-44117240D01*
X133633572Y-44117239D01*
X133633571Y-44117239D01*
X133454307Y-44062860D01*
X133454303Y-44062858D01*
X133289097Y-43974554D01*
X133144288Y-43855712D01*
X133025446Y-43710903D01*
X132937142Y-43545697D01*
X132937142Y-43545696D01*
X132937140Y-43545693D01*
X132882761Y-43366429D01*
X132882761Y-43366428D01*
X132882760Y-43366425D01*
X132864399Y-43180000D01*
X132882760Y-42993575D01*
X132903348Y-42925705D01*
X132937140Y-42814307D01*
X132937142Y-42814303D01*
X133025446Y-42649097D01*
X133144288Y-42504288D01*
X133289097Y-42385446D01*
X133454303Y-42297142D01*
X133454304Y-42297142D01*
X133454307Y-42297140D01*
X133633571Y-42242761D01*
X133633572Y-42242761D01*
X133633575Y-42242760D01*
X133773282Y-42229000D01*
X133866718Y-42229000D01*
X134006425Y-42242760D01*
X134006425Y-42242760D01*
G37*
M02*
