G04 #@! TF.GenerationSoftware,KiCad,Pcbnew,(5.1.4-0-10_14)*
G04 #@! TF.CreationDate,2021-05-27T15:15:14+02:00*
G04 #@! TF.ProjectId,Untitled,556e7469-746c-4656-942e-6b696361645f,rev?*
G04 #@! TF.SameCoordinates,Original*
G04 #@! TF.FileFunction,Other,Fab,Top*
%FSLAX46Y46*%
G04 Gerber Fmt 4.6, Leading zero omitted, Abs format (unit mm)*
G04 Created by KiCad (PCBNEW (5.1.4-0-10_14)) date 2021-05-27 15:15:14*
%MOMM*%
%LPD*%
G04 APERTURE LIST*
%ADD10C,0.100000*%
%ADD11C,0.150000*%
%ADD12C,0.141000*%
G04 APERTURE END LIST*
D10*
X135486000Y-71862000D02*
X135486000Y-69362000D01*
X135486000Y-69362000D02*
X130786000Y-69362000D01*
X130786000Y-69362000D02*
X130786000Y-71862000D01*
X130786000Y-71862000D02*
X135486000Y-71862000D01*
X118090000Y-54864000D02*
G75*
G03X118090000Y-54864000I-2500000J0D01*
G01*
X117723605Y-55951500D02*
X117223605Y-55951500D01*
X117473605Y-56201500D02*
X117473605Y-55701500D01*
X117473605Y-63821500D02*
X117473605Y-63321500D01*
X117723605Y-63571500D02*
X117223605Y-63571500D01*
X118090000Y-62484000D02*
G75*
G03X118090000Y-62484000I-2500000J0D01*
G01*
X126960000Y-68306000D02*
G75*
G03X126960000Y-68306000I-2500000J0D01*
G01*
X125547500Y-66172395D02*
X125547500Y-66672395D01*
X125797500Y-66422395D02*
X125297500Y-66422395D01*
X111188000Y-54582000D02*
G75*
G03X111188000Y-54582000I-4000000J0D01*
G01*
X108935500Y-51155241D02*
X108935500Y-51955241D01*
X109335500Y-51555241D02*
X108535500Y-51555241D01*
X109335500Y-60699241D02*
X108535500Y-60699241D01*
X108935500Y-60299241D02*
X108935500Y-61099241D01*
X111188000Y-63726000D02*
G75*
G03X111188000Y-63726000I-4000000J0D01*
G01*
X150812000Y-45438000D02*
G75*
G03X150812000Y-45438000I-4000000J0D01*
G01*
X148559500Y-42011241D02*
X148559500Y-42811241D01*
X148959500Y-42411241D02*
X148159500Y-42411241D01*
X112152500Y-48520759D02*
X112952500Y-48520759D01*
X112552500Y-48920759D02*
X112552500Y-48120759D01*
X118300000Y-45494000D02*
G75*
G03X118300000Y-45494000I-4000000J0D01*
G01*
X152166000Y-55094000D02*
X152166000Y-59794000D01*
X154666000Y-55094000D02*
X152166000Y-55094000D01*
X154666000Y-59794000D02*
X154666000Y-55094000D01*
X152166000Y-59794000D02*
X154666000Y-59794000D01*
X123170000Y-54506000D02*
X120670000Y-54506000D01*
X120670000Y-54506000D02*
X120670000Y-59206000D01*
X120670000Y-59206000D02*
X123170000Y-59206000D01*
X123170000Y-59206000D02*
X123170000Y-54506000D01*
X132810000Y-80010000D02*
G75*
G03X132810000Y-80010000I-2000000J0D01*
G01*
X137890000Y-80010000D02*
G75*
G03X137890000Y-80010000I-2000000J0D01*
G01*
X128270000Y-74110000D02*
X138430000Y-74110000D01*
X138430000Y-74110000D02*
X138430000Y-85310000D01*
X138430000Y-85310000D02*
X128770000Y-85310000D01*
X128770000Y-85310000D02*
X128270000Y-84810000D01*
X128270000Y-84810000D02*
X128270000Y-74110000D01*
X128270000Y-84810000D02*
X138430000Y-84810000D01*
X128270000Y-82310000D02*
X138430000Y-82310000D01*
X128270000Y-76110000D02*
X138430000Y-76110000D01*
X132327000Y-78737000D02*
X129537000Y-81527000D01*
X132083000Y-78493000D02*
X129293000Y-81283000D01*
X137407000Y-78737000D02*
X134618000Y-81527000D01*
X137163000Y-78493000D02*
X134374000Y-81283000D01*
X124463000Y-78493000D02*
X121674000Y-81283000D01*
X124707000Y-78737000D02*
X121918000Y-81527000D01*
X119383000Y-78493000D02*
X116593000Y-81283000D01*
X119627000Y-78737000D02*
X116837000Y-81527000D01*
X115570000Y-76110000D02*
X125730000Y-76110000D01*
X115570000Y-82310000D02*
X125730000Y-82310000D01*
X115570000Y-84810000D02*
X125730000Y-84810000D01*
X115570000Y-84810000D02*
X115570000Y-74110000D01*
X116070000Y-85310000D02*
X115570000Y-84810000D01*
X125730000Y-85310000D02*
X116070000Y-85310000D01*
X125730000Y-74110000D02*
X125730000Y-85310000D01*
X115570000Y-74110000D02*
X125730000Y-74110000D01*
X125190000Y-80010000D02*
G75*
G03X125190000Y-80010000I-2000000J0D01*
G01*
X120110000Y-80010000D02*
G75*
G03X120110000Y-80010000I-2000000J0D01*
G01*
X145510000Y-80010000D02*
G75*
G03X145510000Y-80010000I-2000000J0D01*
G01*
X150590000Y-80010000D02*
G75*
G03X150590000Y-80010000I-2000000J0D01*
G01*
X140970000Y-74110000D02*
X151130000Y-74110000D01*
X151130000Y-74110000D02*
X151130000Y-85310000D01*
X151130000Y-85310000D02*
X141470000Y-85310000D01*
X141470000Y-85310000D02*
X140970000Y-84810000D01*
X140970000Y-84810000D02*
X140970000Y-74110000D01*
X140970000Y-84810000D02*
X151130000Y-84810000D01*
X140970000Y-82310000D02*
X151130000Y-82310000D01*
X140970000Y-76110000D02*
X151130000Y-76110000D01*
X145027000Y-78737000D02*
X142237000Y-81527000D01*
X144783000Y-78493000D02*
X141993000Y-81283000D01*
X150107000Y-78737000D02*
X147318000Y-81527000D01*
X149863000Y-78493000D02*
X147074000Y-81283000D01*
X125730000Y-54610000D02*
X127660000Y-54610000D01*
X135890000Y-54610000D02*
X133960000Y-54610000D01*
X127660000Y-55860000D02*
X133960000Y-55860000D01*
X127660000Y-53360000D02*
X127660000Y-55860000D01*
X133960000Y-53360000D02*
X127660000Y-53360000D01*
X133960000Y-55860000D02*
X133960000Y-53360000D01*
X133960000Y-63480000D02*
X133960000Y-60980000D01*
X133960000Y-60980000D02*
X127660000Y-60980000D01*
X127660000Y-60980000D02*
X127660000Y-63480000D01*
X127660000Y-63480000D02*
X133960000Y-63480000D01*
X135890000Y-62230000D02*
X133960000Y-62230000D01*
X125730000Y-62230000D02*
X127660000Y-62230000D01*
X135890000Y-58420000D02*
X133960000Y-58420000D01*
X125730000Y-58420000D02*
X127660000Y-58420000D01*
X133960000Y-57170000D02*
X127660000Y-57170000D01*
X133960000Y-59670000D02*
X133960000Y-57170000D01*
X127660000Y-59670000D02*
X133960000Y-59670000D01*
X127660000Y-57170000D02*
X127660000Y-59670000D01*
X141122000Y-57170000D02*
X141122000Y-59670000D01*
X141122000Y-59670000D02*
X147422000Y-59670000D01*
X147422000Y-59670000D02*
X147422000Y-57170000D01*
X147422000Y-57170000D02*
X141122000Y-57170000D01*
X139192000Y-58420000D02*
X141122000Y-58420000D01*
X149352000Y-58420000D02*
X147422000Y-58420000D01*
X139192000Y-61976000D02*
X141122000Y-61976000D01*
X149352000Y-61976000D02*
X147422000Y-61976000D01*
X141122000Y-63226000D02*
X147422000Y-63226000D01*
X141122000Y-60726000D02*
X141122000Y-63226000D01*
X147422000Y-60726000D02*
X141122000Y-60726000D01*
X147422000Y-63226000D02*
X147422000Y-60726000D01*
X147422000Y-56114000D02*
X147422000Y-53614000D01*
X147422000Y-53614000D02*
X141122000Y-53614000D01*
X141122000Y-53614000D02*
X141122000Y-56114000D01*
X141122000Y-56114000D02*
X147422000Y-56114000D01*
X149352000Y-54864000D02*
X147422000Y-54864000D01*
X139192000Y-54864000D02*
X141122000Y-54864000D01*
X141122000Y-64282000D02*
X141122000Y-66782000D01*
X141122000Y-66782000D02*
X147422000Y-66782000D01*
X147422000Y-66782000D02*
X147422000Y-64282000D01*
X147422000Y-64282000D02*
X141122000Y-64282000D01*
X139192000Y-65532000D02*
X141122000Y-65532000D01*
X149352000Y-65532000D02*
X147422000Y-65532000D01*
X120320000Y-38680000D02*
X120320000Y-43680000D01*
X120320000Y-43680000D02*
X140520000Y-43680000D01*
X140520000Y-43680000D02*
X140520000Y-38680000D01*
X140520000Y-38680000D02*
X120320000Y-38680000D01*
X120320000Y-40280000D02*
X140520000Y-40280000D01*
X128570000Y-38680000D02*
X128570000Y-40280000D01*
X132270000Y-38680000D02*
X132270000Y-40280000D01*
X121920000Y-43680000D02*
X121920000Y-48260000D01*
X125320000Y-43680000D02*
X125320000Y-48260000D01*
X128720000Y-43680000D02*
X128720000Y-48260000D01*
X132120000Y-43680000D02*
X132120000Y-48260000D01*
X135520000Y-43680000D02*
X135520000Y-48260000D01*
X138920000Y-43680000D02*
X138920000Y-48260000D01*
D11*
X132016952Y-68564380D02*
X131445523Y-68564380D01*
X131731238Y-68564380D02*
X131731238Y-67564380D01*
X131636000Y-67707238D01*
X131540761Y-67802476D01*
X131445523Y-67850095D01*
X132636000Y-67564380D02*
X132731238Y-67564380D01*
X132826476Y-67612000D01*
X132874095Y-67659619D01*
X132921714Y-67754857D01*
X132969333Y-67945333D01*
X132969333Y-68183428D01*
X132921714Y-68373904D01*
X132874095Y-68469142D01*
X132826476Y-68516761D01*
X132731238Y-68564380D01*
X132636000Y-68564380D01*
X132540761Y-68516761D01*
X132493142Y-68469142D01*
X132445523Y-68373904D01*
X132397904Y-68183428D01*
X132397904Y-67945333D01*
X132445523Y-67754857D01*
X132493142Y-67659619D01*
X132540761Y-67612000D01*
X132636000Y-67564380D01*
X133588380Y-67564380D02*
X133683619Y-67564380D01*
X133778857Y-67612000D01*
X133826476Y-67659619D01*
X133874095Y-67754857D01*
X133921714Y-67945333D01*
X133921714Y-68183428D01*
X133874095Y-68373904D01*
X133826476Y-68469142D01*
X133778857Y-68516761D01*
X133683619Y-68564380D01*
X133588380Y-68564380D01*
X133493142Y-68516761D01*
X133445523Y-68469142D01*
X133397904Y-68373904D01*
X133350285Y-68183428D01*
X133350285Y-67945333D01*
X133397904Y-67754857D01*
X133445523Y-67659619D01*
X133493142Y-67612000D01*
X133588380Y-67564380D01*
X134350285Y-67897714D02*
X134350285Y-68564380D01*
X134350285Y-67992952D02*
X134397904Y-67945333D01*
X134493142Y-67897714D01*
X134636000Y-67897714D01*
X134731238Y-67945333D01*
X134778857Y-68040571D01*
X134778857Y-68564380D01*
D12*
X132979333Y-70947714D02*
X132934571Y-70992476D01*
X132800285Y-71037238D01*
X132710761Y-71037238D01*
X132576476Y-70992476D01*
X132486952Y-70902952D01*
X132442190Y-70813428D01*
X132397428Y-70634380D01*
X132397428Y-70500095D01*
X132442190Y-70321047D01*
X132486952Y-70231523D01*
X132576476Y-70142000D01*
X132710761Y-70097238D01*
X132800285Y-70097238D01*
X132934571Y-70142000D01*
X132979333Y-70186761D01*
X133874571Y-71037238D02*
X133337428Y-71037238D01*
X133606000Y-71037238D02*
X133606000Y-70097238D01*
X133516476Y-70231523D01*
X133426952Y-70321047D01*
X133337428Y-70365809D01*
D11*
X114137619Y-50661619D02*
X114185238Y-50614000D01*
X114280476Y-50566380D01*
X114518571Y-50566380D01*
X114613809Y-50614000D01*
X114661428Y-50661619D01*
X114709047Y-50756857D01*
X114709047Y-50852095D01*
X114661428Y-50994952D01*
X114090000Y-51566380D01*
X114709047Y-51566380D01*
X115137619Y-51471142D02*
X115185238Y-51518761D01*
X115137619Y-51566380D01*
X115090000Y-51518761D01*
X115137619Y-51471142D01*
X115137619Y-51566380D01*
X115566190Y-50661619D02*
X115613809Y-50614000D01*
X115709047Y-50566380D01*
X115947142Y-50566380D01*
X116042380Y-50614000D01*
X116090000Y-50661619D01*
X116137619Y-50756857D01*
X116137619Y-50852095D01*
X116090000Y-50994952D01*
X115518571Y-51566380D01*
X116137619Y-51566380D01*
X116994761Y-50899714D02*
X116994761Y-51566380D01*
X116566190Y-50899714D02*
X116566190Y-51423523D01*
X116613809Y-51518761D01*
X116709047Y-51566380D01*
X116851904Y-51566380D01*
X116947142Y-51518761D01*
X116994761Y-51471142D01*
X115423333Y-55221142D02*
X115375714Y-55268761D01*
X115232857Y-55316380D01*
X115137619Y-55316380D01*
X114994761Y-55268761D01*
X114899523Y-55173523D01*
X114851904Y-55078285D01*
X114804285Y-54887809D01*
X114804285Y-54744952D01*
X114851904Y-54554476D01*
X114899523Y-54459238D01*
X114994761Y-54364000D01*
X115137619Y-54316380D01*
X115232857Y-54316380D01*
X115375714Y-54364000D01*
X115423333Y-54411619D01*
X115804285Y-54411619D02*
X115851904Y-54364000D01*
X115947142Y-54316380D01*
X116185238Y-54316380D01*
X116280476Y-54364000D01*
X116328095Y-54411619D01*
X116375714Y-54506857D01*
X116375714Y-54602095D01*
X116328095Y-54744952D01*
X115756666Y-55316380D01*
X116375714Y-55316380D01*
X114137619Y-58281619D02*
X114185238Y-58234000D01*
X114280476Y-58186380D01*
X114518571Y-58186380D01*
X114613809Y-58234000D01*
X114661428Y-58281619D01*
X114709047Y-58376857D01*
X114709047Y-58472095D01*
X114661428Y-58614952D01*
X114090000Y-59186380D01*
X114709047Y-59186380D01*
X115137619Y-59091142D02*
X115185238Y-59138761D01*
X115137619Y-59186380D01*
X115090000Y-59138761D01*
X115137619Y-59091142D01*
X115137619Y-59186380D01*
X115566190Y-58281619D02*
X115613809Y-58234000D01*
X115709047Y-58186380D01*
X115947142Y-58186380D01*
X116042380Y-58234000D01*
X116090000Y-58281619D01*
X116137619Y-58376857D01*
X116137619Y-58472095D01*
X116090000Y-58614952D01*
X115518571Y-59186380D01*
X116137619Y-59186380D01*
X116994761Y-58519714D02*
X116994761Y-59186380D01*
X116566190Y-58519714D02*
X116566190Y-59043523D01*
X116613809Y-59138761D01*
X116709047Y-59186380D01*
X116851904Y-59186380D01*
X116947142Y-59138761D01*
X116994761Y-59091142D01*
X115423333Y-62841142D02*
X115375714Y-62888761D01*
X115232857Y-62936380D01*
X115137619Y-62936380D01*
X114994761Y-62888761D01*
X114899523Y-62793523D01*
X114851904Y-62698285D01*
X114804285Y-62507809D01*
X114804285Y-62364952D01*
X114851904Y-62174476D01*
X114899523Y-62079238D01*
X114994761Y-61984000D01*
X115137619Y-61936380D01*
X115232857Y-61936380D01*
X115375714Y-61984000D01*
X115423333Y-62031619D01*
X115756666Y-61936380D02*
X116375714Y-61936380D01*
X116042380Y-62317333D01*
X116185238Y-62317333D01*
X116280476Y-62364952D01*
X116328095Y-62412571D01*
X116375714Y-62507809D01*
X116375714Y-62745904D01*
X116328095Y-62841142D01*
X116280476Y-62888761D01*
X116185238Y-62936380D01*
X115899523Y-62936380D01*
X115804285Y-62888761D01*
X115756666Y-62841142D01*
X121162380Y-68948857D02*
X121162380Y-69520285D01*
X121162380Y-69234571D02*
X120162380Y-69234571D01*
X120305238Y-69329809D01*
X120400476Y-69425047D01*
X120448095Y-69520285D01*
X120162380Y-68329809D02*
X120162380Y-68234571D01*
X120210000Y-68139333D01*
X120257619Y-68091714D01*
X120352857Y-68044095D01*
X120543333Y-67996476D01*
X120781428Y-67996476D01*
X120971904Y-68044095D01*
X121067142Y-68091714D01*
X121114761Y-68139333D01*
X121162380Y-68234571D01*
X121162380Y-68329809D01*
X121114761Y-68425047D01*
X121067142Y-68472666D01*
X120971904Y-68520285D01*
X120781428Y-68567904D01*
X120543333Y-68567904D01*
X120352857Y-68520285D01*
X120257619Y-68472666D01*
X120210000Y-68425047D01*
X120162380Y-68329809D01*
X120495714Y-67139333D02*
X121162380Y-67139333D01*
X120495714Y-67567904D02*
X121019523Y-67567904D01*
X121114761Y-67520285D01*
X121162380Y-67425047D01*
X121162380Y-67282190D01*
X121114761Y-67186952D01*
X121067142Y-67139333D01*
X124817142Y-68472666D02*
X124864761Y-68520285D01*
X124912380Y-68663142D01*
X124912380Y-68758380D01*
X124864761Y-68901238D01*
X124769523Y-68996476D01*
X124674285Y-69044095D01*
X124483809Y-69091714D01*
X124340952Y-69091714D01*
X124150476Y-69044095D01*
X124055238Y-68996476D01*
X123960000Y-68901238D01*
X123912380Y-68758380D01*
X123912380Y-68663142D01*
X123960000Y-68520285D01*
X124007619Y-68472666D01*
X124245714Y-67615523D02*
X124912380Y-67615523D01*
X123864761Y-67853619D02*
X124579047Y-68091714D01*
X124579047Y-67472666D01*
X101485619Y-56272476D02*
X101438000Y-56224857D01*
X101390380Y-56129619D01*
X101390380Y-55891523D01*
X101438000Y-55796285D01*
X101485619Y-55748666D01*
X101580857Y-55701047D01*
X101676095Y-55701047D01*
X101818952Y-55748666D01*
X102390380Y-56320095D01*
X102390380Y-55701047D01*
X101485619Y-55320095D02*
X101438000Y-55272476D01*
X101390380Y-55177238D01*
X101390380Y-54939142D01*
X101438000Y-54843904D01*
X101485619Y-54796285D01*
X101580857Y-54748666D01*
X101676095Y-54748666D01*
X101818952Y-54796285D01*
X102390380Y-55367714D01*
X102390380Y-54748666D01*
X101390380Y-54129619D02*
X101390380Y-54034380D01*
X101438000Y-53939142D01*
X101485619Y-53891523D01*
X101580857Y-53843904D01*
X101771333Y-53796285D01*
X102009428Y-53796285D01*
X102199904Y-53843904D01*
X102295142Y-53891523D01*
X102342761Y-53939142D01*
X102390380Y-54034380D01*
X102390380Y-54129619D01*
X102342761Y-54224857D01*
X102295142Y-54272476D01*
X102199904Y-54320095D01*
X102009428Y-54367714D01*
X101771333Y-54367714D01*
X101580857Y-54320095D01*
X101485619Y-54272476D01*
X101438000Y-54224857D01*
X101390380Y-54129619D01*
X101723714Y-52939142D02*
X102390380Y-52939142D01*
X101723714Y-53367714D02*
X102247523Y-53367714D01*
X102342761Y-53320095D01*
X102390380Y-53224857D01*
X102390380Y-53082000D01*
X102342761Y-52986761D01*
X102295142Y-52939142D01*
X107545142Y-54748666D02*
X107592761Y-54796285D01*
X107640380Y-54939142D01*
X107640380Y-55034380D01*
X107592761Y-55177238D01*
X107497523Y-55272476D01*
X107402285Y-55320095D01*
X107211809Y-55367714D01*
X107068952Y-55367714D01*
X106878476Y-55320095D01*
X106783238Y-55272476D01*
X106688000Y-55177238D01*
X106640380Y-55034380D01*
X106640380Y-54939142D01*
X106688000Y-54796285D01*
X106735619Y-54748666D01*
X106640380Y-53843904D02*
X106640380Y-54320095D01*
X107116571Y-54367714D01*
X107068952Y-54320095D01*
X107021333Y-54224857D01*
X107021333Y-53986761D01*
X107068952Y-53891523D01*
X107116571Y-53843904D01*
X107211809Y-53796285D01*
X107449904Y-53796285D01*
X107545142Y-53843904D01*
X107592761Y-53891523D01*
X107640380Y-53986761D01*
X107640380Y-54224857D01*
X107592761Y-54320095D01*
X107545142Y-54367714D01*
X101485619Y-65416476D02*
X101438000Y-65368857D01*
X101390380Y-65273619D01*
X101390380Y-65035523D01*
X101438000Y-64940285D01*
X101485619Y-64892666D01*
X101580857Y-64845047D01*
X101676095Y-64845047D01*
X101818952Y-64892666D01*
X102390380Y-65464095D01*
X102390380Y-64845047D01*
X101485619Y-64464095D02*
X101438000Y-64416476D01*
X101390380Y-64321238D01*
X101390380Y-64083142D01*
X101438000Y-63987904D01*
X101485619Y-63940285D01*
X101580857Y-63892666D01*
X101676095Y-63892666D01*
X101818952Y-63940285D01*
X102390380Y-64511714D01*
X102390380Y-63892666D01*
X101390380Y-63273619D02*
X101390380Y-63178380D01*
X101438000Y-63083142D01*
X101485619Y-63035523D01*
X101580857Y-62987904D01*
X101771333Y-62940285D01*
X102009428Y-62940285D01*
X102199904Y-62987904D01*
X102295142Y-63035523D01*
X102342761Y-63083142D01*
X102390380Y-63178380D01*
X102390380Y-63273619D01*
X102342761Y-63368857D01*
X102295142Y-63416476D01*
X102199904Y-63464095D01*
X102009428Y-63511714D01*
X101771333Y-63511714D01*
X101580857Y-63464095D01*
X101485619Y-63416476D01*
X101438000Y-63368857D01*
X101390380Y-63273619D01*
X101723714Y-62083142D02*
X102390380Y-62083142D01*
X101723714Y-62511714D02*
X102247523Y-62511714D01*
X102342761Y-62464095D01*
X102390380Y-62368857D01*
X102390380Y-62226000D01*
X102342761Y-62130761D01*
X102295142Y-62083142D01*
X107545142Y-63892666D02*
X107592761Y-63940285D01*
X107640380Y-64083142D01*
X107640380Y-64178380D01*
X107592761Y-64321238D01*
X107497523Y-64416476D01*
X107402285Y-64464095D01*
X107211809Y-64511714D01*
X107068952Y-64511714D01*
X106878476Y-64464095D01*
X106783238Y-64416476D01*
X106688000Y-64321238D01*
X106640380Y-64178380D01*
X106640380Y-64083142D01*
X106688000Y-63940285D01*
X106735619Y-63892666D01*
X106640380Y-63035523D02*
X106640380Y-63226000D01*
X106688000Y-63321238D01*
X106735619Y-63368857D01*
X106878476Y-63464095D01*
X107068952Y-63511714D01*
X107449904Y-63511714D01*
X107545142Y-63464095D01*
X107592761Y-63416476D01*
X107640380Y-63321238D01*
X107640380Y-63130761D01*
X107592761Y-63035523D01*
X107545142Y-62987904D01*
X107449904Y-62940285D01*
X107211809Y-62940285D01*
X107116571Y-62987904D01*
X107068952Y-63035523D01*
X107021333Y-63130761D01*
X107021333Y-63321238D01*
X107068952Y-63416476D01*
X107116571Y-63464095D01*
X107211809Y-63511714D01*
X142014380Y-46557047D02*
X142014380Y-47128476D01*
X142014380Y-46842761D02*
X141014380Y-46842761D01*
X141157238Y-46938000D01*
X141252476Y-47033238D01*
X141300095Y-47128476D01*
X141014380Y-45938000D02*
X141014380Y-45842761D01*
X141062000Y-45747523D01*
X141109619Y-45699904D01*
X141204857Y-45652285D01*
X141395333Y-45604666D01*
X141633428Y-45604666D01*
X141823904Y-45652285D01*
X141919142Y-45699904D01*
X141966761Y-45747523D01*
X142014380Y-45842761D01*
X142014380Y-45938000D01*
X141966761Y-46033238D01*
X141919142Y-46080857D01*
X141823904Y-46128476D01*
X141633428Y-46176095D01*
X141395333Y-46176095D01*
X141204857Y-46128476D01*
X141109619Y-46080857D01*
X141062000Y-46033238D01*
X141014380Y-45938000D01*
X141014380Y-44985619D02*
X141014380Y-44890380D01*
X141062000Y-44795142D01*
X141109619Y-44747523D01*
X141204857Y-44699904D01*
X141395333Y-44652285D01*
X141633428Y-44652285D01*
X141823904Y-44699904D01*
X141919142Y-44747523D01*
X141966761Y-44795142D01*
X142014380Y-44890380D01*
X142014380Y-44985619D01*
X141966761Y-45080857D01*
X141919142Y-45128476D01*
X141823904Y-45176095D01*
X141633428Y-45223714D01*
X141395333Y-45223714D01*
X141204857Y-45176095D01*
X141109619Y-45128476D01*
X141062000Y-45080857D01*
X141014380Y-44985619D01*
X141347714Y-43795142D02*
X142014380Y-43795142D01*
X141347714Y-44223714D02*
X141871523Y-44223714D01*
X141966761Y-44176095D01*
X142014380Y-44080857D01*
X142014380Y-43938000D01*
X141966761Y-43842761D01*
X141919142Y-43795142D01*
X147169142Y-45604666D02*
X147216761Y-45652285D01*
X147264380Y-45795142D01*
X147264380Y-45890380D01*
X147216761Y-46033238D01*
X147121523Y-46128476D01*
X147026285Y-46176095D01*
X146835809Y-46223714D01*
X146692952Y-46223714D01*
X146502476Y-46176095D01*
X146407238Y-46128476D01*
X146312000Y-46033238D01*
X146264380Y-45890380D01*
X146264380Y-45795142D01*
X146312000Y-45652285D01*
X146359619Y-45604666D01*
X146264380Y-45271333D02*
X146264380Y-44604666D01*
X147264380Y-45033238D01*
X120002380Y-46613047D02*
X120002380Y-47184476D01*
X120002380Y-46898761D02*
X119002380Y-46898761D01*
X119145238Y-46994000D01*
X119240476Y-47089238D01*
X119288095Y-47184476D01*
X119002380Y-45994000D02*
X119002380Y-45898761D01*
X119050000Y-45803523D01*
X119097619Y-45755904D01*
X119192857Y-45708285D01*
X119383333Y-45660666D01*
X119621428Y-45660666D01*
X119811904Y-45708285D01*
X119907142Y-45755904D01*
X119954761Y-45803523D01*
X120002380Y-45898761D01*
X120002380Y-45994000D01*
X119954761Y-46089238D01*
X119907142Y-46136857D01*
X119811904Y-46184476D01*
X119621428Y-46232095D01*
X119383333Y-46232095D01*
X119192857Y-46184476D01*
X119097619Y-46136857D01*
X119050000Y-46089238D01*
X119002380Y-45994000D01*
X119002380Y-45041619D02*
X119002380Y-44946380D01*
X119050000Y-44851142D01*
X119097619Y-44803523D01*
X119192857Y-44755904D01*
X119383333Y-44708285D01*
X119621428Y-44708285D01*
X119811904Y-44755904D01*
X119907142Y-44803523D01*
X119954761Y-44851142D01*
X120002380Y-44946380D01*
X120002380Y-45041619D01*
X119954761Y-45136857D01*
X119907142Y-45184476D01*
X119811904Y-45232095D01*
X119621428Y-45279714D01*
X119383333Y-45279714D01*
X119192857Y-45232095D01*
X119097619Y-45184476D01*
X119050000Y-45136857D01*
X119002380Y-45041619D01*
X119335714Y-43851142D02*
X120002380Y-43851142D01*
X119335714Y-44279714D02*
X119859523Y-44279714D01*
X119954761Y-44232095D01*
X120002380Y-44136857D01*
X120002380Y-43994000D01*
X119954761Y-43898761D01*
X119907142Y-43851142D01*
X114657142Y-45660666D02*
X114704761Y-45708285D01*
X114752380Y-45851142D01*
X114752380Y-45946380D01*
X114704761Y-46089238D01*
X114609523Y-46184476D01*
X114514285Y-46232095D01*
X114323809Y-46279714D01*
X114180952Y-46279714D01*
X113990476Y-46232095D01*
X113895238Y-46184476D01*
X113800000Y-46089238D01*
X113752380Y-45946380D01*
X113752380Y-45851142D01*
X113800000Y-45708285D01*
X113847619Y-45660666D01*
X114180952Y-45089238D02*
X114133333Y-45184476D01*
X114085714Y-45232095D01*
X113990476Y-45279714D01*
X113942857Y-45279714D01*
X113847619Y-45232095D01*
X113800000Y-45184476D01*
X113752380Y-45089238D01*
X113752380Y-44898761D01*
X113800000Y-44803523D01*
X113847619Y-44755904D01*
X113942857Y-44708285D01*
X113990476Y-44708285D01*
X114085714Y-44755904D01*
X114133333Y-44803523D01*
X114180952Y-44898761D01*
X114180952Y-45089238D01*
X114228571Y-45184476D01*
X114276190Y-45232095D01*
X114371428Y-45279714D01*
X114561904Y-45279714D01*
X114657142Y-45232095D01*
X114704761Y-45184476D01*
X114752380Y-45089238D01*
X114752380Y-44898761D01*
X114704761Y-44803523D01*
X114657142Y-44755904D01*
X114561904Y-44708285D01*
X114371428Y-44708285D01*
X114276190Y-44755904D01*
X114228571Y-44803523D01*
X114180952Y-44898761D01*
X156368380Y-58563047D02*
X156368380Y-59134476D01*
X156368380Y-58848761D02*
X155368380Y-58848761D01*
X155511238Y-58944000D01*
X155606476Y-59039238D01*
X155654095Y-59134476D01*
X155368380Y-57944000D02*
X155368380Y-57848761D01*
X155416000Y-57753523D01*
X155463619Y-57705904D01*
X155558857Y-57658285D01*
X155749333Y-57610666D01*
X155987428Y-57610666D01*
X156177904Y-57658285D01*
X156273142Y-57705904D01*
X156320761Y-57753523D01*
X156368380Y-57848761D01*
X156368380Y-57944000D01*
X156320761Y-58039238D01*
X156273142Y-58086857D01*
X156177904Y-58134476D01*
X155987428Y-58182095D01*
X155749333Y-58182095D01*
X155558857Y-58134476D01*
X155463619Y-58086857D01*
X155416000Y-58039238D01*
X155368380Y-57944000D01*
X155368380Y-56991619D02*
X155368380Y-56896380D01*
X155416000Y-56801142D01*
X155463619Y-56753523D01*
X155558857Y-56705904D01*
X155749333Y-56658285D01*
X155987428Y-56658285D01*
X156177904Y-56705904D01*
X156273142Y-56753523D01*
X156320761Y-56801142D01*
X156368380Y-56896380D01*
X156368380Y-56991619D01*
X156320761Y-57086857D01*
X156273142Y-57134476D01*
X156177904Y-57182095D01*
X155987428Y-57229714D01*
X155749333Y-57229714D01*
X155558857Y-57182095D01*
X155463619Y-57134476D01*
X155416000Y-57086857D01*
X155368380Y-56991619D01*
X155701714Y-56229714D02*
X156368380Y-56229714D01*
X155796952Y-56229714D02*
X155749333Y-56182095D01*
X155701714Y-56086857D01*
X155701714Y-55944000D01*
X155749333Y-55848761D01*
X155844571Y-55801142D01*
X156368380Y-55801142D01*
D12*
X153751714Y-57600666D02*
X153796476Y-57645428D01*
X153841238Y-57779714D01*
X153841238Y-57869238D01*
X153796476Y-58003523D01*
X153706952Y-58093047D01*
X153617428Y-58137809D01*
X153438380Y-58182571D01*
X153304095Y-58182571D01*
X153125047Y-58137809D01*
X153035523Y-58093047D01*
X152946000Y-58003523D01*
X152901238Y-57869238D01*
X152901238Y-57779714D01*
X152946000Y-57645428D01*
X152990761Y-57600666D01*
X153841238Y-57153047D02*
X153841238Y-56974000D01*
X153796476Y-56884476D01*
X153751714Y-56839714D01*
X153617428Y-56750190D01*
X153438380Y-56705428D01*
X153080285Y-56705428D01*
X152990761Y-56750190D01*
X152946000Y-56794952D01*
X152901238Y-56884476D01*
X152901238Y-57063523D01*
X152946000Y-57153047D01*
X152990761Y-57197809D01*
X153080285Y-57242571D01*
X153304095Y-57242571D01*
X153393619Y-57197809D01*
X153438380Y-57153047D01*
X153483142Y-57063523D01*
X153483142Y-56884476D01*
X153438380Y-56794952D01*
X153393619Y-56750190D01*
X153304095Y-56705428D01*
D11*
X119872380Y-57975047D02*
X119872380Y-58546476D01*
X119872380Y-58260761D02*
X118872380Y-58260761D01*
X119015238Y-58356000D01*
X119110476Y-58451238D01*
X119158095Y-58546476D01*
X118872380Y-57356000D02*
X118872380Y-57260761D01*
X118920000Y-57165523D01*
X118967619Y-57117904D01*
X119062857Y-57070285D01*
X119253333Y-57022666D01*
X119491428Y-57022666D01*
X119681904Y-57070285D01*
X119777142Y-57117904D01*
X119824761Y-57165523D01*
X119872380Y-57260761D01*
X119872380Y-57356000D01*
X119824761Y-57451238D01*
X119777142Y-57498857D01*
X119681904Y-57546476D01*
X119491428Y-57594095D01*
X119253333Y-57594095D01*
X119062857Y-57546476D01*
X118967619Y-57498857D01*
X118920000Y-57451238D01*
X118872380Y-57356000D01*
X118872380Y-56403619D02*
X118872380Y-56308380D01*
X118920000Y-56213142D01*
X118967619Y-56165523D01*
X119062857Y-56117904D01*
X119253333Y-56070285D01*
X119491428Y-56070285D01*
X119681904Y-56117904D01*
X119777142Y-56165523D01*
X119824761Y-56213142D01*
X119872380Y-56308380D01*
X119872380Y-56403619D01*
X119824761Y-56498857D01*
X119777142Y-56546476D01*
X119681904Y-56594095D01*
X119491428Y-56641714D01*
X119253333Y-56641714D01*
X119062857Y-56594095D01*
X118967619Y-56546476D01*
X118920000Y-56498857D01*
X118872380Y-56403619D01*
X119205714Y-55641714D02*
X119872380Y-55641714D01*
X119300952Y-55641714D02*
X119253333Y-55594095D01*
X119205714Y-55498857D01*
X119205714Y-55356000D01*
X119253333Y-55260761D01*
X119348571Y-55213142D01*
X119872380Y-55213142D01*
D12*
X122255714Y-57460285D02*
X122300476Y-57505047D01*
X122345238Y-57639333D01*
X122345238Y-57728857D01*
X122300476Y-57863142D01*
X122210952Y-57952666D01*
X122121428Y-57997428D01*
X121942380Y-58042190D01*
X121808095Y-58042190D01*
X121629047Y-57997428D01*
X121539523Y-57952666D01*
X121450000Y-57863142D01*
X121405238Y-57728857D01*
X121405238Y-57639333D01*
X121450000Y-57505047D01*
X121494761Y-57460285D01*
X122345238Y-56565047D02*
X122345238Y-57102190D01*
X122345238Y-56833619D02*
X121405238Y-56833619D01*
X121539523Y-56923142D01*
X121629047Y-57012666D01*
X121673809Y-57102190D01*
X121405238Y-55983142D02*
X121405238Y-55893619D01*
X121450000Y-55804095D01*
X121494761Y-55759333D01*
X121584285Y-55714571D01*
X121763333Y-55669809D01*
X121987142Y-55669809D01*
X122166190Y-55714571D01*
X122255714Y-55759333D01*
X122300476Y-55804095D01*
X122345238Y-55893619D01*
X122345238Y-55983142D01*
X122300476Y-56072666D01*
X122255714Y-56117428D01*
X122166190Y-56162190D01*
X121987142Y-56206952D01*
X121763333Y-56206952D01*
X121584285Y-56162190D01*
X121494761Y-56117428D01*
X121450000Y-56072666D01*
X121405238Y-55983142D01*
D11*
X125111904Y-86774761D02*
X125254761Y-86822380D01*
X125492857Y-86822380D01*
X125588095Y-86774761D01*
X125635714Y-86727142D01*
X125683333Y-86631904D01*
X125683333Y-86536666D01*
X125635714Y-86441428D01*
X125588095Y-86393809D01*
X125492857Y-86346190D01*
X125302380Y-86298571D01*
X125207142Y-86250952D01*
X125159523Y-86203333D01*
X125111904Y-86108095D01*
X125111904Y-86012857D01*
X125159523Y-85917619D01*
X125207142Y-85870000D01*
X125302380Y-85822380D01*
X125540476Y-85822380D01*
X125683333Y-85870000D01*
X126540476Y-86774761D02*
X126445238Y-86822380D01*
X126254761Y-86822380D01*
X126159523Y-86774761D01*
X126111904Y-86727142D01*
X126064285Y-86631904D01*
X126064285Y-86346190D01*
X126111904Y-86250952D01*
X126159523Y-86203333D01*
X126254761Y-86155714D01*
X126445238Y-86155714D01*
X126540476Y-86203333D01*
X126969047Y-86822380D02*
X126969047Y-86155714D01*
X126969047Y-86346190D02*
X127016666Y-86250952D01*
X127064285Y-86203333D01*
X127159523Y-86155714D01*
X127254761Y-86155714D01*
X127969047Y-86774761D02*
X127873809Y-86822380D01*
X127683333Y-86822380D01*
X127588095Y-86774761D01*
X127540476Y-86679523D01*
X127540476Y-86298571D01*
X127588095Y-86203333D01*
X127683333Y-86155714D01*
X127873809Y-86155714D01*
X127969047Y-86203333D01*
X128016666Y-86298571D01*
X128016666Y-86393809D01*
X127540476Y-86489047D01*
X128350000Y-86155714D02*
X128540476Y-86822380D01*
X128730952Y-86346190D01*
X128921428Y-86822380D01*
X129111904Y-86155714D01*
X129254761Y-86917619D02*
X130016666Y-86917619D01*
X130111904Y-85822380D02*
X130683333Y-85822380D01*
X130397619Y-86822380D02*
X130397619Y-85822380D01*
X131397619Y-86774761D02*
X131302380Y-86822380D01*
X131111904Y-86822380D01*
X131016666Y-86774761D01*
X130969047Y-86679523D01*
X130969047Y-86298571D01*
X131016666Y-86203333D01*
X131111904Y-86155714D01*
X131302380Y-86155714D01*
X131397619Y-86203333D01*
X131445238Y-86298571D01*
X131445238Y-86393809D01*
X130969047Y-86489047D01*
X131873809Y-86822380D02*
X131873809Y-86155714D01*
X131873809Y-86346190D02*
X131921428Y-86250952D01*
X131969047Y-86203333D01*
X132064285Y-86155714D01*
X132159523Y-86155714D01*
X132492857Y-86822380D02*
X132492857Y-86155714D01*
X132492857Y-86250952D02*
X132540476Y-86203333D01*
X132635714Y-86155714D01*
X132778571Y-86155714D01*
X132873809Y-86203333D01*
X132921428Y-86298571D01*
X132921428Y-86822380D01*
X132921428Y-86298571D02*
X132969047Y-86203333D01*
X133064285Y-86155714D01*
X133207142Y-86155714D01*
X133302380Y-86203333D01*
X133350000Y-86298571D01*
X133350000Y-86822380D01*
X133826190Y-86822380D02*
X133826190Y-86155714D01*
X133826190Y-85822380D02*
X133778571Y-85870000D01*
X133826190Y-85917619D01*
X133873809Y-85870000D01*
X133826190Y-85822380D01*
X133826190Y-85917619D01*
X134302380Y-86155714D02*
X134302380Y-86822380D01*
X134302380Y-86250952D02*
X134350000Y-86203333D01*
X134445238Y-86155714D01*
X134588095Y-86155714D01*
X134683333Y-86203333D01*
X134730952Y-86298571D01*
X134730952Y-86822380D01*
X135635714Y-86822380D02*
X135635714Y-86298571D01*
X135588095Y-86203333D01*
X135492857Y-86155714D01*
X135302380Y-86155714D01*
X135207142Y-86203333D01*
X135635714Y-86774761D02*
X135540476Y-86822380D01*
X135302380Y-86822380D01*
X135207142Y-86774761D01*
X135159523Y-86679523D01*
X135159523Y-86584285D01*
X135207142Y-86489047D01*
X135302380Y-86441428D01*
X135540476Y-86441428D01*
X135635714Y-86393809D01*
X136254761Y-86822380D02*
X136159523Y-86774761D01*
X136111904Y-86679523D01*
X136111904Y-85822380D01*
X136397619Y-86917619D02*
X137159523Y-86917619D01*
X137588095Y-85822380D02*
X137683333Y-85822380D01*
X137778571Y-85870000D01*
X137826190Y-85917619D01*
X137873809Y-86012857D01*
X137921428Y-86203333D01*
X137921428Y-86441428D01*
X137873809Y-86631904D01*
X137826190Y-86727142D01*
X137778571Y-86774761D01*
X137683333Y-86822380D01*
X137588095Y-86822380D01*
X137492857Y-86774761D01*
X137445238Y-86727142D01*
X137397619Y-86631904D01*
X137350000Y-86441428D01*
X137350000Y-86203333D01*
X137397619Y-86012857D01*
X137445238Y-85917619D01*
X137492857Y-85870000D01*
X137588095Y-85822380D01*
X138873809Y-86822380D02*
X138302380Y-86822380D01*
X138588095Y-86822380D02*
X138588095Y-85822380D01*
X138492857Y-85965238D01*
X138397619Y-86060476D01*
X138302380Y-86108095D01*
X139207142Y-86822380D02*
X139730952Y-86155714D01*
X139207142Y-86155714D02*
X139730952Y-86822380D01*
X140302380Y-85822380D02*
X140397619Y-85822380D01*
X140492857Y-85870000D01*
X140540476Y-85917619D01*
X140588095Y-86012857D01*
X140635714Y-86203333D01*
X140635714Y-86441428D01*
X140588095Y-86631904D01*
X140540476Y-86727142D01*
X140492857Y-86774761D01*
X140397619Y-86822380D01*
X140302380Y-86822380D01*
X140207142Y-86774761D01*
X140159523Y-86727142D01*
X140111904Y-86631904D01*
X140064285Y-86441428D01*
X140064285Y-86203333D01*
X140111904Y-86012857D01*
X140159523Y-85917619D01*
X140207142Y-85870000D01*
X140302380Y-85822380D01*
X141016666Y-85917619D02*
X141064285Y-85870000D01*
X141159523Y-85822380D01*
X141397619Y-85822380D01*
X141492857Y-85870000D01*
X141540476Y-85917619D01*
X141588095Y-86012857D01*
X141588095Y-86108095D01*
X141540476Y-86250952D01*
X140969047Y-86822380D01*
X141588095Y-86822380D01*
X133016666Y-82562380D02*
X133016666Y-83276666D01*
X132969047Y-83419523D01*
X132873809Y-83514761D01*
X132730952Y-83562380D01*
X132635714Y-83562380D01*
X134016666Y-83562380D02*
X133445238Y-83562380D01*
X133730952Y-83562380D02*
X133730952Y-82562380D01*
X133635714Y-82705238D01*
X133540476Y-82800476D01*
X133445238Y-82848095D01*
X112411904Y-86774761D02*
X112554761Y-86822380D01*
X112792857Y-86822380D01*
X112888095Y-86774761D01*
X112935714Y-86727142D01*
X112983333Y-86631904D01*
X112983333Y-86536666D01*
X112935714Y-86441428D01*
X112888095Y-86393809D01*
X112792857Y-86346190D01*
X112602380Y-86298571D01*
X112507142Y-86250952D01*
X112459523Y-86203333D01*
X112411904Y-86108095D01*
X112411904Y-86012857D01*
X112459523Y-85917619D01*
X112507142Y-85870000D01*
X112602380Y-85822380D01*
X112840476Y-85822380D01*
X112983333Y-85870000D01*
X113840476Y-86774761D02*
X113745238Y-86822380D01*
X113554761Y-86822380D01*
X113459523Y-86774761D01*
X113411904Y-86727142D01*
X113364285Y-86631904D01*
X113364285Y-86346190D01*
X113411904Y-86250952D01*
X113459523Y-86203333D01*
X113554761Y-86155714D01*
X113745238Y-86155714D01*
X113840476Y-86203333D01*
X114269047Y-86822380D02*
X114269047Y-86155714D01*
X114269047Y-86346190D02*
X114316666Y-86250952D01*
X114364285Y-86203333D01*
X114459523Y-86155714D01*
X114554761Y-86155714D01*
X115269047Y-86774761D02*
X115173809Y-86822380D01*
X114983333Y-86822380D01*
X114888095Y-86774761D01*
X114840476Y-86679523D01*
X114840476Y-86298571D01*
X114888095Y-86203333D01*
X114983333Y-86155714D01*
X115173809Y-86155714D01*
X115269047Y-86203333D01*
X115316666Y-86298571D01*
X115316666Y-86393809D01*
X114840476Y-86489047D01*
X115650000Y-86155714D02*
X115840476Y-86822380D01*
X116030952Y-86346190D01*
X116221428Y-86822380D01*
X116411904Y-86155714D01*
X116554761Y-86917619D02*
X117316666Y-86917619D01*
X117411904Y-85822380D02*
X117983333Y-85822380D01*
X117697619Y-86822380D02*
X117697619Y-85822380D01*
X118697619Y-86774761D02*
X118602380Y-86822380D01*
X118411904Y-86822380D01*
X118316666Y-86774761D01*
X118269047Y-86679523D01*
X118269047Y-86298571D01*
X118316666Y-86203333D01*
X118411904Y-86155714D01*
X118602380Y-86155714D01*
X118697619Y-86203333D01*
X118745238Y-86298571D01*
X118745238Y-86393809D01*
X118269047Y-86489047D01*
X119173809Y-86822380D02*
X119173809Y-86155714D01*
X119173809Y-86346190D02*
X119221428Y-86250952D01*
X119269047Y-86203333D01*
X119364285Y-86155714D01*
X119459523Y-86155714D01*
X119792857Y-86822380D02*
X119792857Y-86155714D01*
X119792857Y-86250952D02*
X119840476Y-86203333D01*
X119935714Y-86155714D01*
X120078571Y-86155714D01*
X120173809Y-86203333D01*
X120221428Y-86298571D01*
X120221428Y-86822380D01*
X120221428Y-86298571D02*
X120269047Y-86203333D01*
X120364285Y-86155714D01*
X120507142Y-86155714D01*
X120602380Y-86203333D01*
X120650000Y-86298571D01*
X120650000Y-86822380D01*
X121126190Y-86822380D02*
X121126190Y-86155714D01*
X121126190Y-85822380D02*
X121078571Y-85870000D01*
X121126190Y-85917619D01*
X121173809Y-85870000D01*
X121126190Y-85822380D01*
X121126190Y-85917619D01*
X121602380Y-86155714D02*
X121602380Y-86822380D01*
X121602380Y-86250952D02*
X121650000Y-86203333D01*
X121745238Y-86155714D01*
X121888095Y-86155714D01*
X121983333Y-86203333D01*
X122030952Y-86298571D01*
X122030952Y-86822380D01*
X122935714Y-86822380D02*
X122935714Y-86298571D01*
X122888095Y-86203333D01*
X122792857Y-86155714D01*
X122602380Y-86155714D01*
X122507142Y-86203333D01*
X122935714Y-86774761D02*
X122840476Y-86822380D01*
X122602380Y-86822380D01*
X122507142Y-86774761D01*
X122459523Y-86679523D01*
X122459523Y-86584285D01*
X122507142Y-86489047D01*
X122602380Y-86441428D01*
X122840476Y-86441428D01*
X122935714Y-86393809D01*
X123554761Y-86822380D02*
X123459523Y-86774761D01*
X123411904Y-86679523D01*
X123411904Y-85822380D01*
X123697619Y-86917619D02*
X124459523Y-86917619D01*
X124888095Y-85822380D02*
X124983333Y-85822380D01*
X125078571Y-85870000D01*
X125126190Y-85917619D01*
X125173809Y-86012857D01*
X125221428Y-86203333D01*
X125221428Y-86441428D01*
X125173809Y-86631904D01*
X125126190Y-86727142D01*
X125078571Y-86774761D01*
X124983333Y-86822380D01*
X124888095Y-86822380D01*
X124792857Y-86774761D01*
X124745238Y-86727142D01*
X124697619Y-86631904D01*
X124650000Y-86441428D01*
X124650000Y-86203333D01*
X124697619Y-86012857D01*
X124745238Y-85917619D01*
X124792857Y-85870000D01*
X124888095Y-85822380D01*
X126173809Y-86822380D02*
X125602380Y-86822380D01*
X125888095Y-86822380D02*
X125888095Y-85822380D01*
X125792857Y-85965238D01*
X125697619Y-86060476D01*
X125602380Y-86108095D01*
X126507142Y-86822380D02*
X127030952Y-86155714D01*
X126507142Y-86155714D02*
X127030952Y-86822380D01*
X127602380Y-85822380D02*
X127697619Y-85822380D01*
X127792857Y-85870000D01*
X127840476Y-85917619D01*
X127888095Y-86012857D01*
X127935714Y-86203333D01*
X127935714Y-86441428D01*
X127888095Y-86631904D01*
X127840476Y-86727142D01*
X127792857Y-86774761D01*
X127697619Y-86822380D01*
X127602380Y-86822380D01*
X127507142Y-86774761D01*
X127459523Y-86727142D01*
X127411904Y-86631904D01*
X127364285Y-86441428D01*
X127364285Y-86203333D01*
X127411904Y-86012857D01*
X127459523Y-85917619D01*
X127507142Y-85870000D01*
X127602380Y-85822380D01*
X128316666Y-85917619D02*
X128364285Y-85870000D01*
X128459523Y-85822380D01*
X128697619Y-85822380D01*
X128792857Y-85870000D01*
X128840476Y-85917619D01*
X128888095Y-86012857D01*
X128888095Y-86108095D01*
X128840476Y-86250952D01*
X128269047Y-86822380D01*
X128888095Y-86822380D01*
X120316666Y-82562380D02*
X120316666Y-83276666D01*
X120269047Y-83419523D01*
X120173809Y-83514761D01*
X120030952Y-83562380D01*
X119935714Y-83562380D01*
X120745238Y-82657619D02*
X120792857Y-82610000D01*
X120888095Y-82562380D01*
X121126190Y-82562380D01*
X121221428Y-82610000D01*
X121269047Y-82657619D01*
X121316666Y-82752857D01*
X121316666Y-82848095D01*
X121269047Y-82990952D01*
X120697619Y-83562380D01*
X121316666Y-83562380D01*
X137811904Y-86774761D02*
X137954761Y-86822380D01*
X138192857Y-86822380D01*
X138288095Y-86774761D01*
X138335714Y-86727142D01*
X138383333Y-86631904D01*
X138383333Y-86536666D01*
X138335714Y-86441428D01*
X138288095Y-86393809D01*
X138192857Y-86346190D01*
X138002380Y-86298571D01*
X137907142Y-86250952D01*
X137859523Y-86203333D01*
X137811904Y-86108095D01*
X137811904Y-86012857D01*
X137859523Y-85917619D01*
X137907142Y-85870000D01*
X138002380Y-85822380D01*
X138240476Y-85822380D01*
X138383333Y-85870000D01*
X139240476Y-86774761D02*
X139145238Y-86822380D01*
X138954761Y-86822380D01*
X138859523Y-86774761D01*
X138811904Y-86727142D01*
X138764285Y-86631904D01*
X138764285Y-86346190D01*
X138811904Y-86250952D01*
X138859523Y-86203333D01*
X138954761Y-86155714D01*
X139145238Y-86155714D01*
X139240476Y-86203333D01*
X139669047Y-86822380D02*
X139669047Y-86155714D01*
X139669047Y-86346190D02*
X139716666Y-86250952D01*
X139764285Y-86203333D01*
X139859523Y-86155714D01*
X139954761Y-86155714D01*
X140669047Y-86774761D02*
X140573809Y-86822380D01*
X140383333Y-86822380D01*
X140288095Y-86774761D01*
X140240476Y-86679523D01*
X140240476Y-86298571D01*
X140288095Y-86203333D01*
X140383333Y-86155714D01*
X140573809Y-86155714D01*
X140669047Y-86203333D01*
X140716666Y-86298571D01*
X140716666Y-86393809D01*
X140240476Y-86489047D01*
X141050000Y-86155714D02*
X141240476Y-86822380D01*
X141430952Y-86346190D01*
X141621428Y-86822380D01*
X141811904Y-86155714D01*
X141954761Y-86917619D02*
X142716666Y-86917619D01*
X142811904Y-85822380D02*
X143383333Y-85822380D01*
X143097619Y-86822380D02*
X143097619Y-85822380D01*
X144097619Y-86774761D02*
X144002380Y-86822380D01*
X143811904Y-86822380D01*
X143716666Y-86774761D01*
X143669047Y-86679523D01*
X143669047Y-86298571D01*
X143716666Y-86203333D01*
X143811904Y-86155714D01*
X144002380Y-86155714D01*
X144097619Y-86203333D01*
X144145238Y-86298571D01*
X144145238Y-86393809D01*
X143669047Y-86489047D01*
X144573809Y-86822380D02*
X144573809Y-86155714D01*
X144573809Y-86346190D02*
X144621428Y-86250952D01*
X144669047Y-86203333D01*
X144764285Y-86155714D01*
X144859523Y-86155714D01*
X145192857Y-86822380D02*
X145192857Y-86155714D01*
X145192857Y-86250952D02*
X145240476Y-86203333D01*
X145335714Y-86155714D01*
X145478571Y-86155714D01*
X145573809Y-86203333D01*
X145621428Y-86298571D01*
X145621428Y-86822380D01*
X145621428Y-86298571D02*
X145669047Y-86203333D01*
X145764285Y-86155714D01*
X145907142Y-86155714D01*
X146002380Y-86203333D01*
X146050000Y-86298571D01*
X146050000Y-86822380D01*
X146526190Y-86822380D02*
X146526190Y-86155714D01*
X146526190Y-85822380D02*
X146478571Y-85870000D01*
X146526190Y-85917619D01*
X146573809Y-85870000D01*
X146526190Y-85822380D01*
X146526190Y-85917619D01*
X147002380Y-86155714D02*
X147002380Y-86822380D01*
X147002380Y-86250952D02*
X147050000Y-86203333D01*
X147145238Y-86155714D01*
X147288095Y-86155714D01*
X147383333Y-86203333D01*
X147430952Y-86298571D01*
X147430952Y-86822380D01*
X148335714Y-86822380D02*
X148335714Y-86298571D01*
X148288095Y-86203333D01*
X148192857Y-86155714D01*
X148002380Y-86155714D01*
X147907142Y-86203333D01*
X148335714Y-86774761D02*
X148240476Y-86822380D01*
X148002380Y-86822380D01*
X147907142Y-86774761D01*
X147859523Y-86679523D01*
X147859523Y-86584285D01*
X147907142Y-86489047D01*
X148002380Y-86441428D01*
X148240476Y-86441428D01*
X148335714Y-86393809D01*
X148954761Y-86822380D02*
X148859523Y-86774761D01*
X148811904Y-86679523D01*
X148811904Y-85822380D01*
X149097619Y-86917619D02*
X149859523Y-86917619D01*
X150288095Y-85822380D02*
X150383333Y-85822380D01*
X150478571Y-85870000D01*
X150526190Y-85917619D01*
X150573809Y-86012857D01*
X150621428Y-86203333D01*
X150621428Y-86441428D01*
X150573809Y-86631904D01*
X150526190Y-86727142D01*
X150478571Y-86774761D01*
X150383333Y-86822380D01*
X150288095Y-86822380D01*
X150192857Y-86774761D01*
X150145238Y-86727142D01*
X150097619Y-86631904D01*
X150050000Y-86441428D01*
X150050000Y-86203333D01*
X150097619Y-86012857D01*
X150145238Y-85917619D01*
X150192857Y-85870000D01*
X150288095Y-85822380D01*
X151573809Y-86822380D02*
X151002380Y-86822380D01*
X151288095Y-86822380D02*
X151288095Y-85822380D01*
X151192857Y-85965238D01*
X151097619Y-86060476D01*
X151002380Y-86108095D01*
X151907142Y-86822380D02*
X152430952Y-86155714D01*
X151907142Y-86155714D02*
X152430952Y-86822380D01*
X153002380Y-85822380D02*
X153097619Y-85822380D01*
X153192857Y-85870000D01*
X153240476Y-85917619D01*
X153288095Y-86012857D01*
X153335714Y-86203333D01*
X153335714Y-86441428D01*
X153288095Y-86631904D01*
X153240476Y-86727142D01*
X153192857Y-86774761D01*
X153097619Y-86822380D01*
X153002380Y-86822380D01*
X152907142Y-86774761D01*
X152859523Y-86727142D01*
X152811904Y-86631904D01*
X152764285Y-86441428D01*
X152764285Y-86203333D01*
X152811904Y-86012857D01*
X152859523Y-85917619D01*
X152907142Y-85870000D01*
X153002380Y-85822380D01*
X153716666Y-85917619D02*
X153764285Y-85870000D01*
X153859523Y-85822380D01*
X154097619Y-85822380D01*
X154192857Y-85870000D01*
X154240476Y-85917619D01*
X154288095Y-86012857D01*
X154288095Y-86108095D01*
X154240476Y-86250952D01*
X153669047Y-86822380D01*
X154288095Y-86822380D01*
X145716666Y-82562380D02*
X145716666Y-83276666D01*
X145669047Y-83419523D01*
X145573809Y-83514761D01*
X145430952Y-83562380D01*
X145335714Y-83562380D01*
X146097619Y-82562380D02*
X146716666Y-82562380D01*
X146383333Y-82943333D01*
X146526190Y-82943333D01*
X146621428Y-82990952D01*
X146669047Y-83038571D01*
X146716666Y-83133809D01*
X146716666Y-83371904D01*
X146669047Y-83467142D01*
X146621428Y-83514761D01*
X146526190Y-83562380D01*
X146240476Y-83562380D01*
X146145238Y-83514761D01*
X146097619Y-83467142D01*
X129738571Y-52692380D02*
X129167142Y-52692380D01*
X129452857Y-52692380D02*
X129452857Y-51692380D01*
X129357619Y-51835238D01*
X129262380Y-51930476D01*
X129167142Y-51978095D01*
X130119523Y-51787619D02*
X130167142Y-51740000D01*
X130262380Y-51692380D01*
X130500476Y-51692380D01*
X130595714Y-51740000D01*
X130643333Y-51787619D01*
X130690952Y-51882857D01*
X130690952Y-51978095D01*
X130643333Y-52120952D01*
X130071904Y-52692380D01*
X130690952Y-52692380D01*
X131310000Y-51692380D02*
X131405238Y-51692380D01*
X131500476Y-51740000D01*
X131548095Y-51787619D01*
X131595714Y-51882857D01*
X131643333Y-52073333D01*
X131643333Y-52311428D01*
X131595714Y-52501904D01*
X131548095Y-52597142D01*
X131500476Y-52644761D01*
X131405238Y-52692380D01*
X131310000Y-52692380D01*
X131214761Y-52644761D01*
X131167142Y-52597142D01*
X131119523Y-52501904D01*
X131071904Y-52311428D01*
X131071904Y-52073333D01*
X131119523Y-51882857D01*
X131167142Y-51787619D01*
X131214761Y-51740000D01*
X131310000Y-51692380D01*
X132071904Y-52692380D02*
X132071904Y-51692380D01*
X132167142Y-52311428D02*
X132452857Y-52692380D01*
X132452857Y-52025714D02*
X132071904Y-52406666D01*
X130643333Y-55062380D02*
X130310000Y-54586190D01*
X130071904Y-55062380D02*
X130071904Y-54062380D01*
X130452857Y-54062380D01*
X130548095Y-54110000D01*
X130595714Y-54157619D01*
X130643333Y-54252857D01*
X130643333Y-54395714D01*
X130595714Y-54490952D01*
X130548095Y-54538571D01*
X130452857Y-54586190D01*
X130071904Y-54586190D01*
X131595714Y-55062380D02*
X131024285Y-55062380D01*
X131310000Y-55062380D02*
X131310000Y-54062380D01*
X131214761Y-54205238D01*
X131119523Y-54300476D01*
X131024285Y-54348095D01*
X130024285Y-59407619D02*
X130071904Y-59360000D01*
X130167142Y-59312380D01*
X130405238Y-59312380D01*
X130500476Y-59360000D01*
X130548095Y-59407619D01*
X130595714Y-59502857D01*
X130595714Y-59598095D01*
X130548095Y-59740952D01*
X129976666Y-60312380D01*
X130595714Y-60312380D01*
X131024285Y-60312380D02*
X131024285Y-59312380D01*
X131595714Y-60312380D02*
X131167142Y-59740952D01*
X131595714Y-59312380D02*
X131024285Y-59883809D01*
X130643333Y-62682380D02*
X130310000Y-62206190D01*
X130071904Y-62682380D02*
X130071904Y-61682380D01*
X130452857Y-61682380D01*
X130548095Y-61730000D01*
X130595714Y-61777619D01*
X130643333Y-61872857D01*
X130643333Y-62015714D01*
X130595714Y-62110952D01*
X130548095Y-62158571D01*
X130452857Y-62206190D01*
X130071904Y-62206190D01*
X131024285Y-61777619D02*
X131071904Y-61730000D01*
X131167142Y-61682380D01*
X131405238Y-61682380D01*
X131500476Y-61730000D01*
X131548095Y-61777619D01*
X131595714Y-61872857D01*
X131595714Y-61968095D01*
X131548095Y-62110952D01*
X130976666Y-62682380D01*
X131595714Y-62682380D01*
X130119523Y-61242380D02*
X129548095Y-61242380D01*
X129833809Y-61242380D02*
X129833809Y-60242380D01*
X129738571Y-60385238D01*
X129643333Y-60480476D01*
X129548095Y-60528095D01*
X130500476Y-60337619D02*
X130548095Y-60290000D01*
X130643333Y-60242380D01*
X130881428Y-60242380D01*
X130976666Y-60290000D01*
X131024285Y-60337619D01*
X131071904Y-60432857D01*
X131071904Y-60528095D01*
X131024285Y-60670952D01*
X130452857Y-61242380D01*
X131071904Y-61242380D01*
X132071904Y-61242380D02*
X131738571Y-60766190D01*
X131500476Y-61242380D02*
X131500476Y-60242380D01*
X131881428Y-60242380D01*
X131976666Y-60290000D01*
X132024285Y-60337619D01*
X132071904Y-60432857D01*
X132071904Y-60575714D01*
X132024285Y-60670952D01*
X131976666Y-60718571D01*
X131881428Y-60766190D01*
X131500476Y-60766190D01*
X130643333Y-58872380D02*
X130310000Y-58396190D01*
X130071904Y-58872380D02*
X130071904Y-57872380D01*
X130452857Y-57872380D01*
X130548095Y-57920000D01*
X130595714Y-57967619D01*
X130643333Y-58062857D01*
X130643333Y-58205714D01*
X130595714Y-58300952D01*
X130548095Y-58348571D01*
X130452857Y-58396190D01*
X130071904Y-58396190D01*
X130976666Y-57872380D02*
X131595714Y-57872380D01*
X131262380Y-58253333D01*
X131405238Y-58253333D01*
X131500476Y-58300952D01*
X131548095Y-58348571D01*
X131595714Y-58443809D01*
X131595714Y-58681904D01*
X131548095Y-58777142D01*
X131500476Y-58824761D01*
X131405238Y-58872380D01*
X131119523Y-58872380D01*
X131024285Y-58824761D01*
X130976666Y-58777142D01*
X143581523Y-61242380D02*
X143010095Y-61242380D01*
X143295809Y-61242380D02*
X143295809Y-60242380D01*
X143200571Y-60385238D01*
X143105333Y-60480476D01*
X143010095Y-60528095D01*
X143962476Y-60337619D02*
X144010095Y-60290000D01*
X144105333Y-60242380D01*
X144343428Y-60242380D01*
X144438666Y-60290000D01*
X144486285Y-60337619D01*
X144533904Y-60432857D01*
X144533904Y-60528095D01*
X144486285Y-60670952D01*
X143914857Y-61242380D01*
X144533904Y-61242380D01*
X145533904Y-61242380D02*
X145200571Y-60766190D01*
X144962476Y-61242380D02*
X144962476Y-60242380D01*
X145343428Y-60242380D01*
X145438666Y-60290000D01*
X145486285Y-60337619D01*
X145533904Y-60432857D01*
X145533904Y-60575714D01*
X145486285Y-60670952D01*
X145438666Y-60718571D01*
X145343428Y-60766190D01*
X144962476Y-60766190D01*
X144105333Y-58872380D02*
X143772000Y-58396190D01*
X143533904Y-58872380D02*
X143533904Y-57872380D01*
X143914857Y-57872380D01*
X144010095Y-57920000D01*
X144057714Y-57967619D01*
X144105333Y-58062857D01*
X144105333Y-58205714D01*
X144057714Y-58300952D01*
X144010095Y-58348571D01*
X143914857Y-58396190D01*
X143533904Y-58396190D01*
X144962476Y-58205714D02*
X144962476Y-58872380D01*
X144724380Y-57824761D02*
X144486285Y-58539047D01*
X145105333Y-58539047D01*
X143676761Y-60058380D02*
X143105333Y-60058380D01*
X143391047Y-60058380D02*
X143391047Y-59058380D01*
X143295809Y-59201238D01*
X143200571Y-59296476D01*
X143105333Y-59344095D01*
X144105333Y-60058380D02*
X144105333Y-59058380D01*
X144200571Y-59677428D02*
X144486285Y-60058380D01*
X144486285Y-59391714D02*
X144105333Y-59772666D01*
X144867238Y-59153619D02*
X144914857Y-59106000D01*
X145010095Y-59058380D01*
X145248190Y-59058380D01*
X145343428Y-59106000D01*
X145391047Y-59153619D01*
X145438666Y-59248857D01*
X145438666Y-59344095D01*
X145391047Y-59486952D01*
X144819619Y-60058380D01*
X145438666Y-60058380D01*
X144105333Y-62428380D02*
X143772000Y-61952190D01*
X143533904Y-62428380D02*
X143533904Y-61428380D01*
X143914857Y-61428380D01*
X144010095Y-61476000D01*
X144057714Y-61523619D01*
X144105333Y-61618857D01*
X144105333Y-61761714D01*
X144057714Y-61856952D01*
X144010095Y-61904571D01*
X143914857Y-61952190D01*
X143533904Y-61952190D01*
X145010095Y-61428380D02*
X144533904Y-61428380D01*
X144486285Y-61904571D01*
X144533904Y-61856952D01*
X144629142Y-61809333D01*
X144867238Y-61809333D01*
X144962476Y-61856952D01*
X145010095Y-61904571D01*
X145057714Y-61999809D01*
X145057714Y-62237904D01*
X145010095Y-62333142D01*
X144962476Y-62380761D01*
X144867238Y-62428380D01*
X144629142Y-62428380D01*
X144533904Y-62380761D01*
X144486285Y-62333142D01*
X144057714Y-52946380D02*
X143486285Y-52946380D01*
X143772000Y-52946380D02*
X143772000Y-51946380D01*
X143676761Y-52089238D01*
X143581523Y-52184476D01*
X143486285Y-52232095D01*
X145057714Y-52946380D02*
X144724380Y-52470190D01*
X144486285Y-52946380D02*
X144486285Y-51946380D01*
X144867238Y-51946380D01*
X144962476Y-51994000D01*
X145010095Y-52041619D01*
X145057714Y-52136857D01*
X145057714Y-52279714D01*
X145010095Y-52374952D01*
X144962476Y-52422571D01*
X144867238Y-52470190D01*
X144486285Y-52470190D01*
X144105333Y-55316380D02*
X143772000Y-54840190D01*
X143533904Y-55316380D02*
X143533904Y-54316380D01*
X143914857Y-54316380D01*
X144010095Y-54364000D01*
X144057714Y-54411619D01*
X144105333Y-54506857D01*
X144105333Y-54649714D01*
X144057714Y-54744952D01*
X144010095Y-54792571D01*
X143914857Y-54840190D01*
X143533904Y-54840190D01*
X144962476Y-54316380D02*
X144772000Y-54316380D01*
X144676761Y-54364000D01*
X144629142Y-54411619D01*
X144533904Y-54554476D01*
X144486285Y-54744952D01*
X144486285Y-55125904D01*
X144533904Y-55221142D01*
X144581523Y-55268761D01*
X144676761Y-55316380D01*
X144867238Y-55316380D01*
X144962476Y-55268761D01*
X145010095Y-55221142D01*
X145057714Y-55125904D01*
X145057714Y-54887809D01*
X145010095Y-54792571D01*
X144962476Y-54744952D01*
X144867238Y-54697333D01*
X144676761Y-54697333D01*
X144581523Y-54744952D01*
X144533904Y-54792571D01*
X144486285Y-54887809D01*
X144057714Y-68354380D02*
X143486285Y-68354380D01*
X143772000Y-68354380D02*
X143772000Y-67354380D01*
X143676761Y-67497238D01*
X143581523Y-67592476D01*
X143486285Y-67640095D01*
X145057714Y-68354380D02*
X144724380Y-67878190D01*
X144486285Y-68354380D02*
X144486285Y-67354380D01*
X144867238Y-67354380D01*
X144962476Y-67402000D01*
X145010095Y-67449619D01*
X145057714Y-67544857D01*
X145057714Y-67687714D01*
X145010095Y-67782952D01*
X144962476Y-67830571D01*
X144867238Y-67878190D01*
X144486285Y-67878190D01*
X144105333Y-65984380D02*
X143772000Y-65508190D01*
X143533904Y-65984380D02*
X143533904Y-64984380D01*
X143914857Y-64984380D01*
X144010095Y-65032000D01*
X144057714Y-65079619D01*
X144105333Y-65174857D01*
X144105333Y-65317714D01*
X144057714Y-65412952D01*
X144010095Y-65460571D01*
X143914857Y-65508190D01*
X143533904Y-65508190D01*
X144438666Y-64984380D02*
X145105333Y-64984380D01*
X144676761Y-65984380D01*
X127300952Y-49862380D02*
X127872380Y-49862380D01*
X127586666Y-50862380D02*
X127586666Y-49862380D01*
X128205714Y-50862380D02*
X128205714Y-49862380D01*
X128443809Y-49862380D01*
X128586666Y-49910000D01*
X128681904Y-50005238D01*
X128729523Y-50100476D01*
X128777142Y-50290952D01*
X128777142Y-50433809D01*
X128729523Y-50624285D01*
X128681904Y-50719523D01*
X128586666Y-50814761D01*
X128443809Y-50862380D01*
X128205714Y-50862380D01*
X129158095Y-50576666D02*
X129634285Y-50576666D01*
X129062857Y-50862380D02*
X129396190Y-49862380D01*
X129729523Y-50862380D01*
X130015238Y-49957619D02*
X130062857Y-49910000D01*
X130158095Y-49862380D01*
X130396190Y-49862380D01*
X130491428Y-49910000D01*
X130539047Y-49957619D01*
X130586666Y-50052857D01*
X130586666Y-50148095D01*
X130539047Y-50290952D01*
X129967619Y-50862380D01*
X130586666Y-50862380D01*
X131205714Y-49862380D02*
X131300952Y-49862380D01*
X131396190Y-49910000D01*
X131443809Y-49957619D01*
X131491428Y-50052857D01*
X131539047Y-50243333D01*
X131539047Y-50481428D01*
X131491428Y-50671904D01*
X131443809Y-50767142D01*
X131396190Y-50814761D01*
X131300952Y-50862380D01*
X131205714Y-50862380D01*
X131110476Y-50814761D01*
X131062857Y-50767142D01*
X131015238Y-50671904D01*
X130967619Y-50481428D01*
X130967619Y-50243333D01*
X131015238Y-50052857D01*
X131062857Y-49957619D01*
X131110476Y-49910000D01*
X131205714Y-49862380D01*
X132158095Y-49862380D02*
X132253333Y-49862380D01*
X132348571Y-49910000D01*
X132396190Y-49957619D01*
X132443809Y-50052857D01*
X132491428Y-50243333D01*
X132491428Y-50481428D01*
X132443809Y-50671904D01*
X132396190Y-50767142D01*
X132348571Y-50814761D01*
X132253333Y-50862380D01*
X132158095Y-50862380D01*
X132062857Y-50814761D01*
X132015238Y-50767142D01*
X131967619Y-50671904D01*
X131920000Y-50481428D01*
X131920000Y-50243333D01*
X131967619Y-50052857D01*
X132015238Y-49957619D01*
X132062857Y-49910000D01*
X132158095Y-49862380D01*
X133396190Y-49862380D02*
X132920000Y-49862380D01*
X132872380Y-50338571D01*
X132920000Y-50290952D01*
X133015238Y-50243333D01*
X133253333Y-50243333D01*
X133348571Y-50290952D01*
X133396190Y-50338571D01*
X133443809Y-50433809D01*
X133443809Y-50671904D01*
X133396190Y-50767142D01*
X133348571Y-50814761D01*
X133253333Y-50862380D01*
X133015238Y-50862380D01*
X132920000Y-50814761D01*
X132872380Y-50767142D01*
X129658095Y-37012380D02*
X129658095Y-37821904D01*
X129705714Y-37917142D01*
X129753333Y-37964761D01*
X129848571Y-38012380D01*
X130039047Y-38012380D01*
X130134285Y-37964761D01*
X130181904Y-37917142D01*
X130229523Y-37821904D01*
X130229523Y-37012380D01*
X131229523Y-38012380D02*
X130658095Y-38012380D01*
X130943809Y-38012380D02*
X130943809Y-37012380D01*
X130848571Y-37155238D01*
X130753333Y-37250476D01*
X130658095Y-37298095D01*
X150662285Y-45958380D02*
X150662285Y-44958380D01*
X150995619Y-45672666D01*
X151328952Y-44958380D01*
X151328952Y-45958380D01*
X151948000Y-45958380D02*
X151852761Y-45910761D01*
X151805142Y-45863142D01*
X151757523Y-45767904D01*
X151757523Y-45482190D01*
X151805142Y-45386952D01*
X151852761Y-45339333D01*
X151948000Y-45291714D01*
X152090857Y-45291714D01*
X152186095Y-45339333D01*
X152233714Y-45386952D01*
X152281333Y-45482190D01*
X152281333Y-45767904D01*
X152233714Y-45863142D01*
X152186095Y-45910761D01*
X152090857Y-45958380D01*
X151948000Y-45958380D01*
X153138476Y-45291714D02*
X153138476Y-45958380D01*
X152709904Y-45291714D02*
X152709904Y-45815523D01*
X152757523Y-45910761D01*
X152852761Y-45958380D01*
X152995619Y-45958380D01*
X153090857Y-45910761D01*
X153138476Y-45863142D01*
X153614666Y-45291714D02*
X153614666Y-45958380D01*
X153614666Y-45386952D02*
X153662285Y-45339333D01*
X153757523Y-45291714D01*
X153900380Y-45291714D01*
X153995619Y-45339333D01*
X154043238Y-45434571D01*
X154043238Y-45958380D01*
X154376571Y-45291714D02*
X154757523Y-45291714D01*
X154519428Y-44958380D02*
X154519428Y-45815523D01*
X154567047Y-45910761D01*
X154662285Y-45958380D01*
X154757523Y-45958380D01*
X155090857Y-45958380D02*
X155090857Y-45291714D01*
X155090857Y-44958380D02*
X155043238Y-45006000D01*
X155090857Y-45053619D01*
X155138476Y-45006000D01*
X155090857Y-44958380D01*
X155090857Y-45053619D01*
X155567047Y-45291714D02*
X155567047Y-45958380D01*
X155567047Y-45386952D02*
X155614666Y-45339333D01*
X155709904Y-45291714D01*
X155852761Y-45291714D01*
X155948000Y-45339333D01*
X155995619Y-45434571D01*
X155995619Y-45958380D01*
X156900380Y-45291714D02*
X156900380Y-46101238D01*
X156852761Y-46196476D01*
X156805142Y-46244095D01*
X156709904Y-46291714D01*
X156567047Y-46291714D01*
X156471809Y-46244095D01*
X156900380Y-45910761D02*
X156805142Y-45958380D01*
X156614666Y-45958380D01*
X156519428Y-45910761D01*
X156471809Y-45863142D01*
X156424190Y-45767904D01*
X156424190Y-45482190D01*
X156471809Y-45386952D01*
X156519428Y-45339333D01*
X156614666Y-45291714D01*
X156805142Y-45291714D01*
X156900380Y-45339333D01*
X157376571Y-45958380D02*
X157376571Y-44958380D01*
X157376571Y-45434571D02*
X157948000Y-45434571D01*
X157948000Y-45958380D02*
X157948000Y-44958380D01*
X158567047Y-45958380D02*
X158471809Y-45910761D01*
X158424190Y-45863142D01*
X158376571Y-45767904D01*
X158376571Y-45482190D01*
X158424190Y-45386952D01*
X158471809Y-45339333D01*
X158567047Y-45291714D01*
X158709904Y-45291714D01*
X158805142Y-45339333D01*
X158852761Y-45386952D01*
X158900380Y-45482190D01*
X158900380Y-45767904D01*
X158852761Y-45863142D01*
X158805142Y-45910761D01*
X158709904Y-45958380D01*
X158567047Y-45958380D01*
X159471809Y-45958380D02*
X159376571Y-45910761D01*
X159328952Y-45815523D01*
X159328952Y-44958380D01*
X160233714Y-45910761D02*
X160138476Y-45958380D01*
X159948000Y-45958380D01*
X159852761Y-45910761D01*
X159805142Y-45815523D01*
X159805142Y-45434571D01*
X159852761Y-45339333D01*
X159948000Y-45291714D01*
X160138476Y-45291714D01*
X160233714Y-45339333D01*
X160281333Y-45434571D01*
X160281333Y-45529809D01*
X159805142Y-45625047D01*
X154986095Y-42108380D02*
X154986095Y-41108380D01*
X154986095Y-41584571D02*
X155557523Y-41584571D01*
X155557523Y-42108380D02*
X155557523Y-41108380D01*
X156557523Y-42108380D02*
X155986095Y-42108380D01*
X156271809Y-42108380D02*
X156271809Y-41108380D01*
X156176571Y-41251238D01*
X156081333Y-41346476D01*
X155986095Y-41394095D01*
X100878285Y-88122380D02*
X100878285Y-87122380D01*
X101211619Y-87836666D01*
X101544952Y-87122380D01*
X101544952Y-88122380D01*
X102164000Y-88122380D02*
X102068761Y-88074761D01*
X102021142Y-88027142D01*
X101973523Y-87931904D01*
X101973523Y-87646190D01*
X102021142Y-87550952D01*
X102068761Y-87503333D01*
X102164000Y-87455714D01*
X102306857Y-87455714D01*
X102402095Y-87503333D01*
X102449714Y-87550952D01*
X102497333Y-87646190D01*
X102497333Y-87931904D01*
X102449714Y-88027142D01*
X102402095Y-88074761D01*
X102306857Y-88122380D01*
X102164000Y-88122380D01*
X103354476Y-87455714D02*
X103354476Y-88122380D01*
X102925904Y-87455714D02*
X102925904Y-87979523D01*
X102973523Y-88074761D01*
X103068761Y-88122380D01*
X103211619Y-88122380D01*
X103306857Y-88074761D01*
X103354476Y-88027142D01*
X103830666Y-87455714D02*
X103830666Y-88122380D01*
X103830666Y-87550952D02*
X103878285Y-87503333D01*
X103973523Y-87455714D01*
X104116380Y-87455714D01*
X104211619Y-87503333D01*
X104259238Y-87598571D01*
X104259238Y-88122380D01*
X104592571Y-87455714D02*
X104973523Y-87455714D01*
X104735428Y-87122380D02*
X104735428Y-87979523D01*
X104783047Y-88074761D01*
X104878285Y-88122380D01*
X104973523Y-88122380D01*
X105306857Y-88122380D02*
X105306857Y-87455714D01*
X105306857Y-87122380D02*
X105259238Y-87170000D01*
X105306857Y-87217619D01*
X105354476Y-87170000D01*
X105306857Y-87122380D01*
X105306857Y-87217619D01*
X105783047Y-87455714D02*
X105783047Y-88122380D01*
X105783047Y-87550952D02*
X105830666Y-87503333D01*
X105925904Y-87455714D01*
X106068761Y-87455714D01*
X106164000Y-87503333D01*
X106211619Y-87598571D01*
X106211619Y-88122380D01*
X107116380Y-87455714D02*
X107116380Y-88265238D01*
X107068761Y-88360476D01*
X107021142Y-88408095D01*
X106925904Y-88455714D01*
X106783047Y-88455714D01*
X106687809Y-88408095D01*
X107116380Y-88074761D02*
X107021142Y-88122380D01*
X106830666Y-88122380D01*
X106735428Y-88074761D01*
X106687809Y-88027142D01*
X106640190Y-87931904D01*
X106640190Y-87646190D01*
X106687809Y-87550952D01*
X106735428Y-87503333D01*
X106830666Y-87455714D01*
X107021142Y-87455714D01*
X107116380Y-87503333D01*
X107592571Y-88122380D02*
X107592571Y-87122380D01*
X107592571Y-87598571D02*
X108164000Y-87598571D01*
X108164000Y-88122380D02*
X108164000Y-87122380D01*
X108783047Y-88122380D02*
X108687809Y-88074761D01*
X108640190Y-88027142D01*
X108592571Y-87931904D01*
X108592571Y-87646190D01*
X108640190Y-87550952D01*
X108687809Y-87503333D01*
X108783047Y-87455714D01*
X108925904Y-87455714D01*
X109021142Y-87503333D01*
X109068761Y-87550952D01*
X109116380Y-87646190D01*
X109116380Y-87931904D01*
X109068761Y-88027142D01*
X109021142Y-88074761D01*
X108925904Y-88122380D01*
X108783047Y-88122380D01*
X109687809Y-88122380D02*
X109592571Y-88074761D01*
X109544952Y-87979523D01*
X109544952Y-87122380D01*
X110449714Y-88074761D02*
X110354476Y-88122380D01*
X110164000Y-88122380D01*
X110068761Y-88074761D01*
X110021142Y-87979523D01*
X110021142Y-87598571D01*
X110068761Y-87503333D01*
X110164000Y-87455714D01*
X110354476Y-87455714D01*
X110449714Y-87503333D01*
X110497333Y-87598571D01*
X110497333Y-87693809D01*
X110021142Y-87789047D01*
X105202095Y-84272380D02*
X105202095Y-83272380D01*
X105202095Y-83748571D02*
X105773523Y-83748571D01*
X105773523Y-84272380D02*
X105773523Y-83272380D01*
X106202095Y-83367619D02*
X106249714Y-83320000D01*
X106344952Y-83272380D01*
X106583047Y-83272380D01*
X106678285Y-83320000D01*
X106725904Y-83367619D01*
X106773523Y-83462857D01*
X106773523Y-83558095D01*
X106725904Y-83700952D01*
X106154476Y-84272380D01*
X106773523Y-84272380D01*
X150662285Y-87614380D02*
X150662285Y-86614380D01*
X150995619Y-87328666D01*
X151328952Y-86614380D01*
X151328952Y-87614380D01*
X151948000Y-87614380D02*
X151852761Y-87566761D01*
X151805142Y-87519142D01*
X151757523Y-87423904D01*
X151757523Y-87138190D01*
X151805142Y-87042952D01*
X151852761Y-86995333D01*
X151948000Y-86947714D01*
X152090857Y-86947714D01*
X152186095Y-86995333D01*
X152233714Y-87042952D01*
X152281333Y-87138190D01*
X152281333Y-87423904D01*
X152233714Y-87519142D01*
X152186095Y-87566761D01*
X152090857Y-87614380D01*
X151948000Y-87614380D01*
X153138476Y-86947714D02*
X153138476Y-87614380D01*
X152709904Y-86947714D02*
X152709904Y-87471523D01*
X152757523Y-87566761D01*
X152852761Y-87614380D01*
X152995619Y-87614380D01*
X153090857Y-87566761D01*
X153138476Y-87519142D01*
X153614666Y-86947714D02*
X153614666Y-87614380D01*
X153614666Y-87042952D02*
X153662285Y-86995333D01*
X153757523Y-86947714D01*
X153900380Y-86947714D01*
X153995619Y-86995333D01*
X154043238Y-87090571D01*
X154043238Y-87614380D01*
X154376571Y-86947714D02*
X154757523Y-86947714D01*
X154519428Y-86614380D02*
X154519428Y-87471523D01*
X154567047Y-87566761D01*
X154662285Y-87614380D01*
X154757523Y-87614380D01*
X155090857Y-87614380D02*
X155090857Y-86947714D01*
X155090857Y-86614380D02*
X155043238Y-86662000D01*
X155090857Y-86709619D01*
X155138476Y-86662000D01*
X155090857Y-86614380D01*
X155090857Y-86709619D01*
X155567047Y-86947714D02*
X155567047Y-87614380D01*
X155567047Y-87042952D02*
X155614666Y-86995333D01*
X155709904Y-86947714D01*
X155852761Y-86947714D01*
X155948000Y-86995333D01*
X155995619Y-87090571D01*
X155995619Y-87614380D01*
X156900380Y-86947714D02*
X156900380Y-87757238D01*
X156852761Y-87852476D01*
X156805142Y-87900095D01*
X156709904Y-87947714D01*
X156567047Y-87947714D01*
X156471809Y-87900095D01*
X156900380Y-87566761D02*
X156805142Y-87614380D01*
X156614666Y-87614380D01*
X156519428Y-87566761D01*
X156471809Y-87519142D01*
X156424190Y-87423904D01*
X156424190Y-87138190D01*
X156471809Y-87042952D01*
X156519428Y-86995333D01*
X156614666Y-86947714D01*
X156805142Y-86947714D01*
X156900380Y-86995333D01*
X157376571Y-87614380D02*
X157376571Y-86614380D01*
X157376571Y-87090571D02*
X157948000Y-87090571D01*
X157948000Y-87614380D02*
X157948000Y-86614380D01*
X158567047Y-87614380D02*
X158471809Y-87566761D01*
X158424190Y-87519142D01*
X158376571Y-87423904D01*
X158376571Y-87138190D01*
X158424190Y-87042952D01*
X158471809Y-86995333D01*
X158567047Y-86947714D01*
X158709904Y-86947714D01*
X158805142Y-86995333D01*
X158852761Y-87042952D01*
X158900380Y-87138190D01*
X158900380Y-87423904D01*
X158852761Y-87519142D01*
X158805142Y-87566761D01*
X158709904Y-87614380D01*
X158567047Y-87614380D01*
X159471809Y-87614380D02*
X159376571Y-87566761D01*
X159328952Y-87471523D01*
X159328952Y-86614380D01*
X160233714Y-87566761D02*
X160138476Y-87614380D01*
X159948000Y-87614380D01*
X159852761Y-87566761D01*
X159805142Y-87471523D01*
X159805142Y-87090571D01*
X159852761Y-86995333D01*
X159948000Y-86947714D01*
X160138476Y-86947714D01*
X160233714Y-86995333D01*
X160281333Y-87090571D01*
X160281333Y-87185809D01*
X159805142Y-87281047D01*
X154986095Y-83764380D02*
X154986095Y-82764380D01*
X154986095Y-83240571D02*
X155557523Y-83240571D01*
X155557523Y-83764380D02*
X155557523Y-82764380D01*
X155938476Y-82764380D02*
X156557523Y-82764380D01*
X156224190Y-83145333D01*
X156367047Y-83145333D01*
X156462285Y-83192952D01*
X156509904Y-83240571D01*
X156557523Y-83335809D01*
X156557523Y-83573904D01*
X156509904Y-83669142D01*
X156462285Y-83716761D01*
X156367047Y-83764380D01*
X156081333Y-83764380D01*
X155986095Y-83716761D01*
X155938476Y-83669142D01*
X100878285Y-45958380D02*
X100878285Y-44958380D01*
X101211619Y-45672666D01*
X101544952Y-44958380D01*
X101544952Y-45958380D01*
X102164000Y-45958380D02*
X102068761Y-45910761D01*
X102021142Y-45863142D01*
X101973523Y-45767904D01*
X101973523Y-45482190D01*
X102021142Y-45386952D01*
X102068761Y-45339333D01*
X102164000Y-45291714D01*
X102306857Y-45291714D01*
X102402095Y-45339333D01*
X102449714Y-45386952D01*
X102497333Y-45482190D01*
X102497333Y-45767904D01*
X102449714Y-45863142D01*
X102402095Y-45910761D01*
X102306857Y-45958380D01*
X102164000Y-45958380D01*
X103354476Y-45291714D02*
X103354476Y-45958380D01*
X102925904Y-45291714D02*
X102925904Y-45815523D01*
X102973523Y-45910761D01*
X103068761Y-45958380D01*
X103211619Y-45958380D01*
X103306857Y-45910761D01*
X103354476Y-45863142D01*
X103830666Y-45291714D02*
X103830666Y-45958380D01*
X103830666Y-45386952D02*
X103878285Y-45339333D01*
X103973523Y-45291714D01*
X104116380Y-45291714D01*
X104211619Y-45339333D01*
X104259238Y-45434571D01*
X104259238Y-45958380D01*
X104592571Y-45291714D02*
X104973523Y-45291714D01*
X104735428Y-44958380D02*
X104735428Y-45815523D01*
X104783047Y-45910761D01*
X104878285Y-45958380D01*
X104973523Y-45958380D01*
X105306857Y-45958380D02*
X105306857Y-45291714D01*
X105306857Y-44958380D02*
X105259238Y-45006000D01*
X105306857Y-45053619D01*
X105354476Y-45006000D01*
X105306857Y-44958380D01*
X105306857Y-45053619D01*
X105783047Y-45291714D02*
X105783047Y-45958380D01*
X105783047Y-45386952D02*
X105830666Y-45339333D01*
X105925904Y-45291714D01*
X106068761Y-45291714D01*
X106164000Y-45339333D01*
X106211619Y-45434571D01*
X106211619Y-45958380D01*
X107116380Y-45291714D02*
X107116380Y-46101238D01*
X107068761Y-46196476D01*
X107021142Y-46244095D01*
X106925904Y-46291714D01*
X106783047Y-46291714D01*
X106687809Y-46244095D01*
X107116380Y-45910761D02*
X107021142Y-45958380D01*
X106830666Y-45958380D01*
X106735428Y-45910761D01*
X106687809Y-45863142D01*
X106640190Y-45767904D01*
X106640190Y-45482190D01*
X106687809Y-45386952D01*
X106735428Y-45339333D01*
X106830666Y-45291714D01*
X107021142Y-45291714D01*
X107116380Y-45339333D01*
X107592571Y-45958380D02*
X107592571Y-44958380D01*
X107592571Y-45434571D02*
X108164000Y-45434571D01*
X108164000Y-45958380D02*
X108164000Y-44958380D01*
X108783047Y-45958380D02*
X108687809Y-45910761D01*
X108640190Y-45863142D01*
X108592571Y-45767904D01*
X108592571Y-45482190D01*
X108640190Y-45386952D01*
X108687809Y-45339333D01*
X108783047Y-45291714D01*
X108925904Y-45291714D01*
X109021142Y-45339333D01*
X109068761Y-45386952D01*
X109116380Y-45482190D01*
X109116380Y-45767904D01*
X109068761Y-45863142D01*
X109021142Y-45910761D01*
X108925904Y-45958380D01*
X108783047Y-45958380D01*
X109687809Y-45958380D02*
X109592571Y-45910761D01*
X109544952Y-45815523D01*
X109544952Y-44958380D01*
X110449714Y-45910761D02*
X110354476Y-45958380D01*
X110164000Y-45958380D01*
X110068761Y-45910761D01*
X110021142Y-45815523D01*
X110021142Y-45434571D01*
X110068761Y-45339333D01*
X110164000Y-45291714D01*
X110354476Y-45291714D01*
X110449714Y-45339333D01*
X110497333Y-45434571D01*
X110497333Y-45529809D01*
X110021142Y-45625047D01*
X105202095Y-42108380D02*
X105202095Y-41108380D01*
X105202095Y-41584571D02*
X105773523Y-41584571D01*
X105773523Y-42108380D02*
X105773523Y-41108380D01*
X106678285Y-41441714D02*
X106678285Y-42108380D01*
X106440190Y-41060761D02*
X106202095Y-41775047D01*
X106821142Y-41775047D01*
M02*
