G04 #@! TF.GenerationSoftware,KiCad,Pcbnew,(5.1.4-0-10_14)*
G04 #@! TF.CreationDate,2021-05-27T15:15:14+02:00*
G04 #@! TF.ProjectId,Untitled,556e7469-746c-4656-942e-6b696361645f,rev?*
G04 #@! TF.SameCoordinates,Original*
G04 #@! TF.FileFunction,Copper,L2,Bot*
G04 #@! TF.FilePolarity,Positive*
%FSLAX46Y46*%
G04 Gerber Fmt 4.6, Leading zero omitted, Abs format (unit mm)*
G04 Created by KiCad (PCBNEW (5.1.4-0-10_14)) date 2021-05-27 15:15:14*
%MOMM*%
%LPD*%
G04 APERTURE LIST*
%ADD10C,1.600000*%
%ADD11R,1.600000X1.600000*%
%ADD12R,2.600000X2.600000*%
%ADD13C,2.600000*%
%ADD14O,1.600000X1.600000*%
%ADD15R,1.800000X1.800000*%
%ADD16O,1.800000X1.800000*%
%ADD17C,5.700000*%
%ADD18C,0.508000*%
%ADD19C,0.762000*%
G04 APERTURE END LIST*
D10*
X135636000Y-70612000D03*
X130636000Y-70612000D03*
D11*
X116840000Y-54864000D03*
D10*
X114340000Y-54864000D03*
X114340000Y-62484000D03*
D11*
X116840000Y-62484000D03*
X124460000Y-67056000D03*
D10*
X124460000Y-69556000D03*
D11*
X107188000Y-52832000D03*
D10*
X107188000Y-56332000D03*
X107188000Y-65476000D03*
D11*
X107188000Y-61976000D03*
X146812000Y-43688000D03*
D10*
X146812000Y-47188000D03*
X114300000Y-43744000D03*
D11*
X114300000Y-47244000D03*
D10*
X153416000Y-54944000D03*
X153416000Y-59944000D03*
X121920000Y-54356000D03*
X121920000Y-59356000D03*
D12*
X130810000Y-80010000D03*
D13*
X135890000Y-80010000D03*
X123190000Y-80010000D03*
D12*
X118110000Y-80010000D03*
X143510000Y-80010000D03*
D13*
X148590000Y-80010000D03*
D14*
X125730000Y-54610000D03*
D10*
X135890000Y-54610000D03*
X135890000Y-62230000D03*
D14*
X125730000Y-62230000D03*
X135890000Y-58420000D03*
D10*
X125730000Y-58420000D03*
X139192000Y-58420000D03*
D14*
X149352000Y-58420000D03*
X139192000Y-61976000D03*
D10*
X149352000Y-61976000D03*
X149352000Y-54864000D03*
D14*
X139192000Y-54864000D03*
D10*
X139192000Y-65532000D03*
D14*
X149352000Y-65532000D03*
D15*
X121920000Y-48260000D03*
D16*
X123620000Y-43180000D03*
X125320000Y-48260000D03*
X127020000Y-43180000D03*
X128720000Y-48260000D03*
X130420000Y-43180000D03*
X132120000Y-48260000D03*
X133820000Y-43180000D03*
X135520000Y-48260000D03*
X137220000Y-43180000D03*
X138920000Y-48260000D03*
D17*
X155448000Y-41656000D03*
X105664000Y-83820000D03*
X155448000Y-83312000D03*
X105664000Y-41656000D03*
D18*
X135520000Y-48260000D02*
X135520000Y-50176000D01*
X135890000Y-50546000D02*
X135890000Y-54610000D01*
X135520000Y-50176000D02*
X135890000Y-50546000D01*
D19*
X135636000Y-70612000D02*
X135636000Y-75184000D01*
X135890000Y-75438000D02*
X135890000Y-80010000D01*
X135636000Y-75184000D02*
X135890000Y-75438000D01*
X135636000Y-68072000D02*
X135636000Y-70612000D01*
X134620000Y-67056000D02*
X135636000Y-68072000D01*
D18*
X134758630Y-54610000D02*
X132588000Y-56780630D01*
X132588000Y-56780630D02*
X132588000Y-67056000D01*
X135890000Y-54610000D02*
X134758630Y-54610000D01*
D19*
X132588000Y-67056000D02*
X134620000Y-67056000D01*
X124460000Y-67056000D02*
X132588000Y-67056000D01*
X130636000Y-79836000D02*
X130810000Y-80010000D01*
X130636000Y-70612000D02*
X130636000Y-79836000D01*
X124460000Y-69556000D02*
X125944000Y-69556000D01*
X129504630Y-70612000D02*
X130636000Y-70612000D01*
X127000000Y-70612000D02*
X129504630Y-70612000D01*
X125944000Y-69556000D02*
X127000000Y-70612000D01*
D18*
X128720000Y-49532792D02*
X128524000Y-49728792D01*
X128720000Y-48260000D02*
X128720000Y-49532792D01*
X128524000Y-49728792D02*
X128524000Y-54864000D01*
X128524000Y-54864000D02*
X126492000Y-56896000D01*
X118148000Y-54864000D02*
X116840000Y-54864000D01*
X120180000Y-56896000D02*
X118148000Y-54864000D01*
X126492000Y-56896000D02*
X120180000Y-56896000D01*
D19*
X114340000Y-71160000D02*
X123190000Y-80010000D01*
X114340000Y-62484000D02*
X114340000Y-71160000D01*
D18*
X121920000Y-46852000D02*
X121920000Y-48260000D01*
X122036000Y-46736000D02*
X121920000Y-46852000D01*
X130556000Y-47752000D02*
X129540000Y-46736000D01*
X129540000Y-46736000D02*
X122036000Y-46736000D01*
X118148000Y-62484000D02*
X119672000Y-64008000D01*
X130556000Y-61976000D02*
X130556000Y-47752000D01*
X128524000Y-64008000D02*
X130556000Y-61976000D01*
X119672000Y-64008000D02*
X128524000Y-64008000D01*
X116840000Y-62484000D02*
X118148000Y-62484000D01*
X122096000Y-41656000D02*
X123620000Y-43180000D01*
X111760000Y-49568000D02*
X111760000Y-42672000D01*
X112776000Y-41656000D02*
X122096000Y-41656000D01*
X108496000Y-52832000D02*
X111760000Y-49568000D01*
X111760000Y-42672000D02*
X112776000Y-41656000D01*
X107188000Y-52832000D02*
X108496000Y-52832000D01*
X139192000Y-58420000D02*
X135890000Y-58420000D01*
X139192000Y-58420000D02*
X139192000Y-61976000D01*
X125730000Y-58420000D02*
X125730000Y-62230000D01*
X107188000Y-65476000D02*
X112720000Y-59944000D01*
X112720000Y-59944000D02*
X117856000Y-59944000D01*
X120142000Y-62230000D02*
X125730000Y-62230000D01*
X117856000Y-59944000D02*
X120142000Y-62230000D01*
X127020000Y-43180000D02*
X127020000Y-41676000D01*
X127020000Y-41676000D02*
X125984000Y-40640000D01*
X125984000Y-40640000D02*
X112268000Y-40640000D01*
X112268000Y-40640000D02*
X104648000Y-48260000D01*
X104648000Y-48260000D02*
X104648000Y-60960000D01*
X105664000Y-61976000D02*
X107188000Y-61976000D01*
X104648000Y-60960000D02*
X105664000Y-61976000D01*
X133820000Y-43180000D02*
X135344000Y-41656000D01*
X145504000Y-43688000D02*
X146812000Y-43688000D01*
X143472000Y-41656000D02*
X145504000Y-43688000D01*
X135344000Y-41656000D02*
X143472000Y-41656000D01*
X148120000Y-43688000D02*
X155448000Y-51016000D01*
X146812000Y-43688000D02*
X148120000Y-43688000D01*
X155448000Y-57912000D02*
X153416000Y-59944000D01*
X155448000Y-51016000D02*
X155448000Y-57912000D01*
X135890000Y-62230000D02*
X137160000Y-63500000D01*
X143510000Y-63754000D02*
X143764000Y-63500000D01*
X143510000Y-80010000D02*
X143510000Y-63754000D01*
X137160000Y-63500000D02*
X143764000Y-63500000D01*
X153416000Y-59944000D02*
X148844000Y-59944000D01*
X145288000Y-63500000D02*
X143764000Y-63500000D01*
X148844000Y-59944000D02*
X145288000Y-63500000D01*
X132120000Y-48260000D02*
X133644000Y-46736000D01*
X133644000Y-46736000D02*
X143256000Y-46736000D01*
X143708000Y-47188000D02*
X146812000Y-47188000D01*
X143256000Y-46736000D02*
X143708000Y-47188000D01*
X119380000Y-51816000D02*
X121920000Y-54356000D01*
X119380000Y-48824000D02*
X119380000Y-51816000D01*
X137220000Y-43180000D02*
X137220000Y-45152000D01*
X137220000Y-45152000D02*
X136652000Y-45720000D01*
X117320000Y-46764000D02*
X119380000Y-48824000D01*
X118364000Y-45720000D02*
X117320000Y-46764000D01*
X114300000Y-43744000D02*
X117320000Y-46764000D01*
X148590000Y-80010000D02*
X148590000Y-71882000D01*
X148590000Y-71882000D02*
X151892000Y-68580000D01*
X151892000Y-68580000D02*
X151892000Y-62484000D01*
X151384000Y-61976000D02*
X149352000Y-61976000D01*
X151892000Y-62484000D02*
X151384000Y-61976000D01*
X149352000Y-61976000D02*
X154432000Y-61976000D01*
X154432000Y-61976000D02*
X156972000Y-59436000D01*
X156972000Y-59436000D02*
X156972000Y-50292000D01*
X156972000Y-50292000D02*
X146812000Y-40132000D01*
X146812000Y-40132000D02*
X133096000Y-40132000D01*
X132080000Y-41148000D02*
X132080000Y-45720000D01*
X132080000Y-45720000D02*
X118364000Y-45720000D01*
X133096000Y-40132000D02*
X132080000Y-41148000D01*
X136652000Y-45720000D02*
X132080000Y-45720000D01*
X153336000Y-54864000D02*
X153416000Y-54944000D01*
X149352000Y-54864000D02*
X153336000Y-54864000D01*
X125320000Y-48260000D02*
X125320000Y-50136000D01*
X125730000Y-50546000D02*
X125730000Y-54610000D01*
X125320000Y-50136000D02*
X125730000Y-50546000D01*
M02*
