M48
; DRILL file {KiCad (5.1.4-0-10_14)} date 2021 May 27, Thursday 15:15:29
; FORMAT={-:-/ absolute / metric / decimal}
; #@! TF.CreationDate,2021-05-27T15:15:29+02:00
; #@! TF.GenerationSoftware,Kicad,Pcbnew,(5.1.4-0-10_14)
; #@! TF.FileFunction,Plated,1,2,PTH
FMAT,2
METRIC
T1C0.800
T2C1.000
T3C1.300
T4C3.200
%
G90
G05
T1
X139.192Y-58.42
X149.352Y-58.42
X114.34Y-54.864
X116.84Y-54.864
X146.812Y-43.688
X146.812Y-47.188
X139.192Y-54.864
X149.352Y-54.864
X130.636Y-70.612
X135.636Y-70.612
X107.188Y-52.832
X107.188Y-56.332
X125.73Y-58.42
X135.89Y-58.42
X125.73Y-54.61
X135.89Y-54.61
X149.352Y-61.976
X114.34Y-62.484
X116.84Y-62.484
X107.188Y-61.976
X107.188Y-65.476
X139.192Y-61.976
X153.416Y-54.944
X125.73Y-62.23
X135.89Y-62.23
X114.3Y-43.744
X114.3Y-47.244
X153.416Y-59.944
X149.352Y-65.532
X121.92Y-54.356
X121.92Y-59.356
X124.46Y-67.056
X124.46Y-69.556
X139.192Y-65.532
T2
X121.92Y-48.26
X123.62Y-43.18
X125.32Y-48.26
X127.02Y-43.18
X128.72Y-48.26
X130.42Y-43.18
X132.12Y-48.26
X133.82Y-43.18
X135.52Y-48.26
X137.22Y-43.18
X138.92Y-48.26
T3
X143.51Y-80.01
X148.59Y-80.01
X130.81Y-80.01
X135.89Y-80.01
X118.11Y-80.01
X123.19Y-80.01
T4
X155.448Y-41.656
X105.664Y-83.82
X105.664Y-41.656
X155.448Y-83.312
T0
M30
